<svg width="983.86364" height="586.04575" xmlns="http://www.w3.org/2000/svg">

 <g>
  <title>background</title>
  <rect fill="none" id="canvas_background" height="602" width="802" y="-1" x="-1"/>
 </g>
 <g>
  <title>Layer 1</title>
  <path id="svg_1" fill="#f2f2f2" d="m819.23826,581.29698c-8.99256,-7.59865 -14.45479,-19.60227 -13.02232,-31.28789s10.30472,-22.42829 21.81332,-24.90978s24.62761,4.38768 28.12315,15.62987c1.92376,-21.67449 4.14055,-44.25713 15.6641,-62.715c10.43429,-16.71314 28.50667,-28.672 48.09305,-30.81147s40.20832,5.941 52.42362,21.40027s15.20618,37.93388 6.6509,55.68242c-6.30238,13.07473 -17.91358,22.80511 -30.07923,30.72127a194.12948,194.12948 0 0 1 -132.77224,29.0462"/>
  <path id="svg_2" fill="#fff" d="m952.96455,453.59161a317.62453,317.62453 0 0 0 -44.26411,43.95416a318.55008,318.55008 0 0 0 -49.85571,83.314c-0.89773,2.1999 2.67454,3.15751 3.56229,0.98207a316.75872,316.75872 0 0 1 93.1698,-125.63797c1.8443,-1.5018 -0.78314,-4.10164 -2.61223,-2.61223l-0.00004,-0.00003z"/>
  <path id="svg_3" fill="#f2f2f2" d="m483.5,36.99999a1.00308,1.00308 0 0 1 -1,1l-0.48,0c-0.73975,-0.64 -1.46,-1.31 -2.16016,-2l2.64014,0a1.00308,1.00308 0 0 1 1.00002,1z"/>
  <path id="svg_4" fill="#00007f" d="m507.5,-0.00001l-251,0a7.00779,7.00779 0 0 0 -7,7l0,136a7.00778,7.00778 0 0 0 7,7l251,0a7.00778,7.00778 0 0 0 7,-7l0,-136a7.00779,7.00779 0 0 0 -7,-7zm5,143a5.002,5.002 0 0 1 -5,5l-251,0a5.002,5.002 0 0 1 -5,-5l0,-136a5.002,5.002 0 0 1 5,-5l251,0a5.002,5.002 0 0 1 5,5l0,136z"/>
  <path id="svg_5" fill="#0fcfcc" d="m355.22021,59.15997c-2.99023,-7.18 -7.64013,-13.16 -14.40039,-17.12c-7.08984,-4.17 -15.1997,-7.63995 -23.35986,-8.88995a60.90114,60.90114 0 0 0 -24.48,1.37c-1.04,0.27 -2.12012,0.56 -3.19971,0.88a26.39848,26.39848 0 0 0 -7.90039,3.5c-0.08008,0.05 -0.15967,0.1 -0.23974,0.16c-3.1001,2.28 -5.22022,6.04 -6.96,9.41c-1.6499,3.23 -2.68994,6.79 -1.79,10.4a15.667,15.667 0 0 0 5.77978,8.2c1.93018,1.52 4.46,3.44 7.04,3.48a4.84738,4.84738 0 0 0 1.79,-0.3a2.41825,2.41825 0 0 0 0.50976,-0.25a12.75254,12.75254 0 0 0 3.2002,0.53c4.39014,0.2 8.78027,-1.66 13.29,-3.18a22.88349,22.88349 0 0 1 3.24023,-0.87a12.12816,12.12816 0 0 1 5.94971,0.2a8.784,8.784 0 0 1 1.05029,0.37a19.20084,19.20084 0 0 1 8.11963,7.19c1.91016,2.84 3.17041,6.07 5.27,8.8a12.498,12.498 0 0 0 8.8501,5c5.24023,0.58 11.81982,0.3 16.33008,-2.85a11.4125,11.4125 0 0 0 3.08984,-3.14c0.08008,-0.12 0.16016,-0.24 0.23,-0.36c4.15053,-6.83004 1.43032,-15.74001 -1.40953,-22.53005zm-69.09033,-10.49c1,0.11 2.01026,0.23 3.01026,0.34a11.097,11.097 0 0 0 -5.19,2.43a13.66817,13.66817 0 0 0 -1.57031,1.57c0.02,-0.04 0.02,-0.09 0.04,-0.13a6.97606,6.97606 0 0 1 3.71005,-4.20999l0,-0.00001zm60.29,25.4c0.18018,-0.04 0.37012,-0.07 0.55029,-0.1a1.92546,1.92546 0 0 0 0.79981,-0.32c0,0.03 0.01025,0.07 0.01025,0.1a3.14106,3.14106 0 0 0 0.02979,0.4c-0.0503,0.08 -0.08985,0.16 -0.14014,0.24c-0.41988,-0.10995 -0.83006,-0.21999 -1.24996,-0.31997l-0.00004,-0.00003zm-2.79,-24.32a30.18021,30.18021 0 0 1 5.59033,7.16a47.68623,47.68623 0 0 0 -5.83007,-5.97a3.04593,3.04593 0 0 0 0.23974,-1.18998l0,-0.00002zm-2.42969,28.37a1.71117,1.71117 0 0 0 -0.19043,0.47c-0.26953,0.01 -0.5498,0.02 -0.82959,0.02l-0.14013,0c-0.00977,-0.04 -0.03028,-0.09 -0.04,-0.13c-0.06006,-0.18 -0.10986,-0.36 -0.16992,-0.54c0.45992,0.06002 0.91011,0.12002 1.37007,0.18002l0,-0.00002zm-21.38037,-22.43a3.072,3.072 0 0 0 0.02,-0.61a1.69593,1.69593 0 0 0 0.75,0.32c0.03028,0.01 0.07031,0.01 0.1001,0.02c0.18994,0.11 0.37012,0.21 0.56006,0.32l-0.06006,0.09c-0.45994,-0.04995 -0.9199,-0.08999 -1.3701,-0.13997l0,-0.00003zm15.84033,-4.98l-0.03027,0c-0.65967,-0.41 -1.31982,-0.82 -1.98974,-1.21c0.67968,0.38003 1.35986,0.79 2.02001,1.21005l0,-0.00005zm-3.68017,18.74a1.50807,1.50807 0 0 0 -0.25977,0.35c-0.05029,-0.07 -0.09033,-0.13 -0.14013,-0.2a1.56321,1.56321 0 0 1 0.3999,-0.14996l0,-0.00004zm-8.96,-19.59a3.05933,3.05933 0 0 0 -0.73,-0.43a31.202,31.202 0 0 0 -3.9502,-1.23c-0.1997,-0.19 -0.3999,-0.38 -0.58984,-0.58a30.61239,30.61239 0 0 1 3.35986,0.85a38.5834,38.5834 0 0 1 4.1499,1.6c-0.74994,-0.07999 -1.48968,-0.14999 -2.23968,-0.20999l-0.00004,-0.00001zm-7.62012,-12.54a47.06869,47.06869 0 0 1 8.47022,1.94c-0.28028,-0.07 -0.56006,-0.13 -0.83985,-0.2c-2.65039,-0.6 -5.3501,-1.24 -8.07031,-1.79c0.1499,0.02 0.29008,0.03001 0.43998,0.05003l-0.00004,-0.00003z"/>
  <path id="svg_6" fill="#3f3d56" d="m326.17254,114.97659c-2.52222,-0.0704 -5.66127,-0.15868 -8.07809,-1.92422a6.20431,6.20431 0 0 1 -2.44121,-4.6325a4.17315,4.17315 0 0 1 1.41913,-3.42716a5.38459,5.38459 0 0 1 5.09437,-0.7334l-2.05905,-15.0477l1.51151,-0.2071l2.42073,17.69042l-1.26214,-0.5792c-1.46346,-0.6712 -3.47223,-1.01239 -4.72059,0.04209a2.68025,2.68025 0 0 0 -0.87923,2.208a4.68909,4.68909 0 0 0 1.81638,3.45436c1.88083,1.37444 4.38294,1.55173 7.221,1.63144l-0.04281,1.52497z"/>
  <rect id="svg_7" fill="#3f3d56" height="1.52567" width="8.21703" y="90.50932" x="304.41561"/>
  <rect id="svg_8" fill="#3f3d56" height="1.52567" width="8.21703" y="90.50932" x="330.35192"/>
  <path id="svg_9" fill="#3f3d56" d="m290.13982,69.44171c-6.617,-0.75456 -11.74168,-7.09453 -12.30456,-13.5273c-0.66963,-7.65282 3.78715,-14.92126 9.90151,-19.21569c6.39422,-4.491 14.36079,-6.36642 22.06881,-6.77926a60.65236,60.65236 0 0 1 41.45853,13.66508c5.77575,4.79705 11.16991,10.90765 13.21433,18.28848c1.77549,6.40995 0.33068,13.6716 -4.82472,18.16093a12.18717,12.18717 0 0 1 -9.3523,2.87948c-4.00021,-0.41535 -7.69106,-2.51869 -10.88593,-4.84162c-6.21468,-4.51857 -11.31662,-10.81337 -18.88811,-13.17463c-5.55168,-1.73136 -12.75608,-0.20738 -16.14871,4.81309a9.13784,9.13784 0 0 0 -1.459,3.8284a1.185,1.185 0 0 0 0.79919,1.40756a1.15136,1.15136 0 0 0 1.40756,-0.79919c0.89067,-6.32342 8.66589,-8.683 14.122,-7.2389c7.95524,2.10552 13.29552,9.20443 19.82247,13.71462a24.08831,24.08831 0 0 0 11.54352,4.60752a14.33432,14.33432 0 0 0 10.07189,-3.09412c5.576,-4.403 7.70841,-11.976 6.47542,-18.79425c-1.42783,-7.89563 -6.74211,-14.66265 -12.573,-19.90173a62.89322,62.89322 0 0 0 -42.981,-15.87788c-8.06587,0.18526 -16.48184,1.85036 -23.43055,6.11351c-6.74022,4.13522 -11.94983,11.05345 -12.63072,19.09518c-0.59933,7.07828 3.19831,14.48179 9.71728,17.5828a15.21773,15.21773 0 0 0 4.87614,1.37641c1.46078,0.16658 1.44888,-2.12327 0,-2.28849l-0.00005,0z"/>
  <path id="svg_10" fill="#3f3d56" d="m483.5,36.99999a1.00308,1.00308 0 0 1 -1,1l-82,0a1,1 0 0 1 0,-2l82,0a1.00308,1.00308 0 0 1 1,1z"/>
  <path id="svg_11" fill="#3f3d56" d="m482.5,52.99999l-82,0a1,1 0 0 1 0,-2l82,0a1,1 0 0 1 0,2z"/>
  <path id="svg_12" fill="#3f3d56" d="m482.5,67.99999l-82,0a1,1 0 0 1 0,-2l82,0a1,1 0 0 1 0,2z"/>
  <path id="svg_13" fill="#3f3d56" d="m482.5,82.99999l-82,0a1,1 0 0 1 0,-2l82,0a1,1 0 0 1 0,2z"/>
  <path id="svg_14" fill="#3f3d56" d="m482.5,97.99999l-82,0a1,1 0 0 1 0,-2l82,0a1,1 0 0 1 0,2z"/>
  <path id="svg_15" fill="#3f3d56" d="m482.5,112.99999l-82,0a1,1 0 0 1 0,-2l82,0a1,1 0 0 1 0,2z"/>
  <path id="svg_16" fill="#ffb8b8" d="m186.13082,246.55517a11.25055,11.25055 0 0 1 -7.55054,-2.88135a11.409,11.409 0 0 1 -3.811,-8.19873l-44.37621,-32.27392a11.45624,11.45624 0 0 1 -1.36255,-17.36621l33.03808,-33.03809a9.73432,9.73432 0 0 1 16.61768,6.8833a22.14342,22.14342 0 0 1 -5.64112,13.61865l-22.43234,22.43262l35.2085,28.06494c0.1084,-0.00732 0.217,-0.01318 0.32715,-0.01318a11.38653,11.38653 0 0 1 1.3042,22.69824a11.95451,11.95451 0 0 1 -1.32185,0.07373z"/>
  <polygon id="svg_17" fill="#ffb8b8" points="238.863 437.183 250.77 432.738 239.291 384.695 221.717 391.256 238.863 437.183"/>
  <path id="svg_18" fill="#2f2e41" transform="rotate(159.52813720703125 804.983642578125,862.0574340820314) " d="m1149.53038,1446.2956l39.94526,0a0,0 0 0 1 0,0l0,15.43338a0,0 0 0 1 0,0l-25.0584,0a14.88686,14.88686 0 0 1 -14.88686,-14.88686l0,-0.54652a0,0 0 0 1 0,0z"/>
  <polygon id="svg_19" fill="#ffb8b8" points="131.741 439.363 144.451 439.363 150.497 390.339 131.739 390.34 131.741 439.363"/>
  <path id="svg_20" fill="#2f2e41" transform="rotate(179.99737548828125 406.0757141113282,1043.8610839843752) " d="m643.16135,1636.56935l39.94521,0a0,0 0 0 1 0,0l0,15.43338a0,0 0 0 1 0,0l-25.05835,0a14.88686,14.88686 0 0 1 -14.88686,-14.88686l0,-0.54652a0,0 0 0 1 0,0z"/>
  <path id="svg_21" fill="#2f2e41" d="m145.45874,425.98587q-0.21387,0 -0.4292,-0.0205l-13.4729,-1.28321a4.501,4.501 0 0 1 -4.07178,-4.353c-0.77734,-29.17629 -2.73584,-176.42929 35.15747,-210.1734a4.38733,4.38733 0 0 1 2.33887,-1.05713l0,-0.00049c6.86377,-0.94092 30.02026,-3.248 39.82178,6.61084a4.59141,4.59141 0 0 1 1.24121,2.26514l42.9082,198.38769a4.5002,4.5002 0 0 1 -3.84009,5.4165l-16.45141,2.05616a4.49439,4.49439 0 0 1 -5.03369,-3.99756c-1.637,-15.94678 -11.4729,-96.9502 -44.43555,-125.66309a3.546,3.546 0 0 0 -3.31641,-0.7456a3.41762,3.41762 0 0 0 -2.3645,2.32715c-6.102,19.9663 -25.83545,88.021 -23.56763,125.46142a4.49164,4.49164 0 0 1 -4.48437,4.769l0,0.00008z"/>
  <circle id="svg_22" fill="#ffb8b8" r="24.56103" cy="104.42079" cx="171.38813"/>
  <path id="svg_23" fill="#6c63ff" d="m147.27174,150.67675s22.80763,-26.95448 41.46843,-5.18356l0,0a74.11253,74.11253 0 0 1 17.80945,50.43223l-0.70374,23.69255l-43.02349,-6.73862l-15.55065,-62.2026z"/>
  <path id="svg_24" fill="#ffb8b8" d="m207.20825,202.90624q-0.26842,0 -0.5376,-0.01123a12.71262,12.71262 0 0 1 -9.48144,-4.8623l-27.91553,-35.59277a9.73465,9.73465 0 0 1 8.82764,-15.67188l3.93017,0.4751a11.157,11.157 0 0 1 6.47046,3.645l22.021,28.07715l32.0874,-31.58594c0.00586,-0.1084 0.01318,-0.2168 0.02637,-0.32617a11.38608,11.38608 0 1 1 10.24194,12.70019l-36.35254,39.0918a12.70991,12.70991 0 0 1 -9.31787,4.06105z"/>
  <path id="svg_25" fill="#2f2e41" d="m175.36944,108.66987l10.55231,-12.43165c2.71945,-3.20378 5.56392,-6.69337 5.94852,-10.87806c0.4216,-4.58723 -2.36858,-9.04613 -6.18309,-11.62876s-8.49855,-3.55452 -13.09129,-3.91114c-8.5182,-0.66143 -17.48171,0.74628 -24.48419,5.64142s-11.5838,13.73263 -9.87639,22.10413c1.3444,6.59166 6.29828,12.90609 4.37281,19.352c-2.1068,7.053 -10.74665,9.21692 -17.80072,11.32015c-11.84039,3.53031 -23.14639,10.48021 -29.35158,21.16448s-6.17809,25.4167 2.09358,34.5948c5.35613,5.94306 13.43444,8.94841 21.42216,9.40066s15.93817,-1.42893 23.51357,-4.00216c6.97658,-2.36982 13.87792,-5.41792 19.37047,-10.32921s9.44929,-11.93945 9.278,-19.30555c-0.16321,-7.0199 -3.92356,-13.41448 -5.46828,-20.26425a33.25514,33.25514 0 0 1 10.39525,-31.73"/>
  <path id="svg_26" fill="#00007f" d="m687.5,356.99999l-251,0a7.00786,7.00786 0 0 1 -7,-7l0,-136a7.00787,7.00787 0 0 1 7,-7l251,0a7.00787,7.00787 0 0 1 7,7l0,136a7.00786,7.00786 0 0 1 -7,7zm-251,-148a5.00581,5.00581 0 0 0 -5,5l0,136a5.0058,5.0058 0 0 0 5,5l251,0a5.0058,5.0058 0 0 0 5,-5l0,-136a5.00581,5.00581 0 0 0 -5,-5l-251,0z"/>
  <path id="svg_27" fill="#aa56ff" d="m535.22434,266.15677c-2.99576,-7.172 -7.64884,-13.15428 -14.40291,-17.11955c-7.09618,-4.166 -15.19676,-7.63517 -23.3578,-8.88658a60.93418,60.93418 0 0 0 -24.4829,1.37027c-3.84856,0.99686 -8.09122,2.15464 -11.33711,4.5412c-3.103,2.28144 -5.22856,6.03455 -6.959,9.40614c-1.658,3.23009 -2.69149,6.78705 -1.79411,10.40469a15.64977,15.64977 0 0 0 5.78361,8.1997c2.36242,1.86629 5.66638,4.33683 8.82636,3.18022a2.46231,2.46231 0 0 0 0.51024,-0.25751c5.45715,1.66046 10.88276,-0.75435 16.48454,-2.645c3.40444,-1.14911 6.82759,-1.73006 10.2466,-0.29593a19.19373,19.19373 0 0 1 8.12036,7.18147c1.912,2.84646 3.17042,6.078 5.26793,8.80648a12.51357,12.51357 0 0 0 8.84528,4.99482c6.76886,0.75736 15.75246,0.05981 19.65192,-6.349c4.15528,-6.82926 1.43638,-15.73402 -1.40301,-22.53142zm-69.09338,-10.48837q1.50594,0.171 3.01208,0.34147a11.13689,11.13689 0 0 0 -5.19072,2.43379a13.224,13.224 0 0 0 -1.56922,1.56775c0.0137,-0.04584 0.02175,-0.08947 0.03654,-0.1358a7.00453,7.00453 0 0 1 3.71132,-4.20721zm33.70445,6.41116a1.72269,1.72269 0 0 0 0.75709,0.323c0.03219,0.00528 0.06416,0.01134 0.09635,0.01664q0.27991,0.16071 0.56157,0.31849c-0.02131,0.0295 -0.03719,0.062 -0.05741,0.0923c-0.45892,-0.04746 -0.91827,-0.09292 -1.3774,-0.13908a2.41611,2.41611 0 0 0 0.0198,-0.61135zm12.14923,14.36656a2.01094,2.01094 0 0 0 -0.26665,0.35237q-0.06786,-0.09795 -0.13528,-0.19612a1.32961,1.32961 0 0 1 0.40193,-0.15625zm7.84654,8.49237q0.6825,0.08972 1.36478,0.17938a1.724,1.724 0 0 0 -0.18509,0.47321c-0.32233,0.01055 -0.64748,0.016 -0.97285,0.01726l-0.20684,-0.66985zm6.58986,-3.87262l0.54918,-0.09431a1.99869,1.99869 0 0 0 0.80277,-0.31891c0.00108,0.03219 0.00369,0.06468 0.005,0.09684c0.00391,0.10973 0.01435,0.24648 0.02806,0.40229c-0.04481,0.07859 -0.09026,0.15681 -0.13833,0.23429q-0.62344,-0.16006 -1.24668,-0.3202zm-23.40152,-24.201a2.621,2.621 0 0 0 -0.731,-0.43a31.60975,31.60975 0 0 0 -3.95078,-1.23553q-0.30177,-0.28341 -0.589,-0.58193a31.80768,31.80768 0 0 1 3.3568,0.85429a39.08733,39.08733 0 0 1 4.15414,1.59752q-1.12093,-0.12507 -2.24016,-0.20435zm12.606,0.84461q-0.98655,-0.61663 -1.98572,-1.21055q1.02408,0.57708 2.01922,1.20989l-0.0335,0.00066zm13.59206,6.20339a47.42183,47.42183 0 0 0 -5.83015,-5.97117a2.90251,2.90251 0 0 0 0.2412,-1.18991a29.9608,29.9608 0 0 1 5.58895,7.16108zm-25.34876,-17.65762c-0.27861,-0.06438 -0.55744,-0.1293 -0.83648,-0.19227c-2.65,-0.59816 -5.3495,-1.24254 -8.07339,-1.78927c0.14615,0.01729 0.29231,0.03124 0.43825,0.04983a47.0319,47.0319 0 0 1 8.47162,1.93171z"/>
  <path id="svg_28" fill="#3f3d56" d="m506.17254,321.97659c-2.52222,-0.0704 -5.66127,-0.15868 -8.07809,-1.92422a6.20431,6.20431 0 0 1 -2.44121,-4.6325a4.17315,4.17315 0 0 1 1.41913,-3.42716a5.38459,5.38459 0 0 1 5.09437,-0.7334l-2.059,-15.0477l1.51151,-0.2071l2.42073,17.69042l-1.26214,-0.5792c-1.46346,-0.6712 -3.47223,-1.01239 -4.72059,0.04209a2.68025,2.68025 0 0 0 -0.87923,2.208a4.68909,4.68909 0 0 0 1.81638,3.45436c1.88083,1.37444 4.38294,1.55173 7.221,1.63144l-0.04286,1.52497z"/>
  <rect id="svg_29" fill="#3f3d56" height="1.52567" width="8.21703" y="297.50932" x="484.41561"/>
  <rect id="svg_30" fill="#3f3d56" height="1.52567" width="8.21703" y="297.50932" x="510.35192"/>
  <path id="svg_31" fill="#3f3d56" d="m470.13982,276.44171c-6.617,-0.75456 -11.74168,-7.09453 -12.30456,-13.5273c-0.66963,-7.65282 3.78715,-14.92126 9.90151,-19.21569c6.39422,-4.491 14.36079,-6.36642 22.06881,-6.77926a60.65236,60.65236 0 0 1 41.45853,13.66508c5.77575,4.79705 11.16991,10.90765 13.21433,18.28848c1.77549,6.41 0.33068,13.6716 -4.82472,18.16093a12.18717,12.18717 0 0 1 -9.3523,2.87948c-4.00021,-0.41535 -7.69106,-2.51869 -10.88593,-4.84162c-6.21468,-4.51857 -11.31662,-10.81337 -18.88811,-13.17463c-5.55168,-1.73136 -12.75608,-0.20738 -16.14871,4.81309a9.13784,9.13784 0 0 0 -1.459,3.8284a1.185,1.185 0 0 0 0.79919,1.40756a1.15136,1.15136 0 0 0 1.40756,-0.79919c0.89067,-6.32342 8.66589,-8.683 14.122,-7.2389c7.95524,2.10552 13.29552,9.20443 19.82247,13.71462a24.08831,24.08831 0 0 0 11.54352,4.60752a14.33432,14.33432 0 0 0 10.07189,-3.09412c5.576,-4.403 7.70841,-11.976 6.47542,-18.79425c-1.42783,-7.89563 -6.74211,-14.66265 -12.573,-19.90173a62.89322,62.89322 0 0 0 -42.981,-15.87788c-8.06587,0.18526 -16.48184,1.85036 -23.43055,6.11351c-6.74022,4.13522 -11.94983,11.05345 -12.63072,19.09518c-0.59933,7.07828 3.19831,14.48179 9.71728,17.5828a15.21773,15.21773 0 0 0 4.87614,1.37641c1.46078,0.16658 1.44888,-2.12327 0,-2.28849l-0.00005,0z"/>
  <path id="svg_32" fill="#3f3d56" d="m662.5,244.99999l-82,0a1,1 0 0 1 0,-2l82,0a1,1 0 0 1 0,2z"/>
  <path id="svg_33" fill="#3f3d56" d="m662.5,259.99999l-82,0a1,1 0 0 1 0,-2l82,0a1,1 0 0 1 0,2z"/>
  <path id="svg_34" fill="#3f3d56" d="m662.5,274.99999l-82,0a1,1 0 0 1 0,-2l82,0a1,1 0 0 1 0,2z"/>
  <path id="svg_35" fill="#3f3d56" d="m662.5,289.99999l-82,0a1,1 0 0 1 0,-2l82,0a1,1 0 0 1 0,2z"/>
  <path id="svg_36" fill="#3f3d56" d="m662.5,304.99999l-82,0a1,1 0 0 1 0,-2l82,0a1,1 0 0 1 0,2z"/>
  <path id="svg_37" fill="#3f3d56" d="m662.5,319.99999l-82,0a1,1 0 0 1 0,-2l82,0a1,1 0 0 1 0,2z"/>
  <circle id="svg_38" fill="#ffb8b8" r="26.2388" cy="185.43674" cx="815.68569"/>
  <polygon id="svg_39" fill="#ffb8b8" points="737.487 572.021 725.009 568.044 734.412 518.019 752.829 523.889 737.487 572.021"/>
  <path id="svg_40" fill="#2f2e41" d="m716.66559,561.45166l24.63258,7.85124a0,0 0 0 1 0,0l-4.82967,15.15266a0,0 0 0 1 0,0l-39.21865,-12.50031a0,0 0 0 1 0,0l0.18059,-0.56658a14.58607,14.58607 0 0 1 19.23515,-9.93701z"/>
  <polygon id="svg_41" fill="#ffb8b8" points="828.277 571.762 815.179 571.762 808.946 521.244 828.277 521.244 828.277 571.762"/>
  <path id="svg_42" fill="#2f2e41" d="m805.22944,568.02005l25.85365,0a0,0 0 0 1 0,0l0,15.9038a0,0 0 0 1 0,0l-41.16277,0a0,0 0 0 1 0,0l0,-0.59467a15.30912,15.30912 0 0 1 15.30912,-15.30913z"/>
  <path id="svg_43" fill="#2f2e41" d="m827.89307,555.36816l-4.42042,-0.65967c-13.407,-1.99756 -14.20971,-2.11719 -16.33813,-3.05176c-1.08691,-0.47754 -1.16333,-7.69336 -0.51074,-48.25586c0.47876,-29.77441 1.075,-66.82959 -0.08252,-86.72265a3.4994,3.4994 0 0 0 -6.70313,-1.18067c-9.97558,23.03711 -26.71215,74.59034 -37.78711,108.7041c-3.85229,11.8667 -6.895,21.23926 -8.82006,26.85743a4.52376,4.52376 0 0 1 -5.35352,2.898c-9.114,-2.27832 -8.50464,-3.24707 -21.4856,-6.6045a4.48877,4.48877 0 0 1 -3.28173,-5.28173c2.3479,-11.07227 45.31445,-190.59961 48.60327,-207.66553a4.50167,4.50167 0 0 1 5.30517,-3.57178c9.67383,1.94922 15.55909,4.01709 25.1189,6.0166c10.31543,2.15772 20.98218,4.38916 31.38647,6.47168l0,0a4.46283,4.46283 0 0 1 2.61915,1.60547c2.57446,3.25147 6.39184,5.07666 10.43359,7.00879c2.72485,1.30273 -3.44971,1.18533 -1.07666,3.064c9.60986,7.6074 -4.20947,162.08759 -12.55957,196.97754a4.51511,4.51511 0 0 1 -5.04736,3.39063l0,-0.00009z"/>
  <path id="svg_44" fill="#ffb8b8" d="m819.98407,380.27987a9.49736,9.49736 0 0 1 8.89631,-11.52991l21.20757,-23.938l13.16966,15.91049l-24.389,17.81707a9.54884,9.54884 0 0 1 -18.88457,1.74031l0.00003,0.00004z"/>
  <path id="svg_45" fill="#2f2e41" d="m826.86941,208.39647c-1.53189,-6.50011 6.21217,-20.48653 4.68028,-26.98664c-1.03742,-4.402 -11.38856,-1.4096 -13.8042,-5.233s-6.46185,-6.92091 -10.98413,-6.97166c-5.198,-0.05834 -10.31283,3.79747 -15.23683,2.131c-4.97869,-1.685 -6.57,-8.50289 -4.36888,-13.27591s6.94277,-7.81448 11.62748,-10.19776c7.97753,-4.05846 17.26629,-7.02215 25.80456,-4.337c5.16141,1.62317 9.477,5.14032 13.65329,8.58028c3.80691,3.13569 7.67786,6.34248 10.33909,10.49494c5.21345,8.13482 4.89891,19.09553 0.44363,27.66908s-12.57337,14.86515 -21.51862,18.51725"/>
  <path id="svg_46" fill="#003f7f" d="m762.44116,359.66308c2.832,-4.731 7.13159,-26.89746 12.43384,-64.10352c3.60986,-25.39892 6.75513,-51.20605 8.31567,-64.38867a6.33874,6.33874 0 0 1 3.55957,-5.00146q1.51905,-0.73316 3.02,-1.3877c12.9231,-5.62109 26.01978,-7.4834 38.92407,-5.53613a70.61888,70.61888 0 0 1 34.91895,15.91113l0.11743,0.11084l0.03027,0.15821c0.05616,0.293 5.47584,29.498 -5.625,49.22949c-10.94824,19.46875 -11.07592,71.02637 -11.07592,71.54492l0,0.6626l-0.63745,-0.18164c-17.032,-4.8667 -82.825,3.64746 -83.4878,3.73437l-1.02441,0.13379l0.53078,-0.88623z"/>
  <path id="svg_47" fill="#003f7f" d="m832.33182,363.61865l33.457,-44.60938l-17.25244,-36.96972l1.25268,-43.84571l14.14429,-2.61328l0.1499,0.0752a35.60556,35.60556 0 0 1 15.12793,17.62451c3.14185,7.85547 9.65894,34.58105 14.57251,55.61816a32.50067,32.50067 0 0 1 -8.7229,30.55762l-41.04248,41.043l-11.68649,-16.8804z"/>
  <path id="svg_48" fill="#ffb8b8" d="m691.87821,275.21052a9.4974,9.4974 0 0 1 14.51269,-1.21053l31.97725,-0.49249l-2.86124,20.45476l-29.60489,-5.98505a9.54884,9.54884 0 0 1 -14.02381,-12.76669z"/>
  <path id="svg_49" fill="#003f7f" d="m707.92895,293.10253l4.574,-20.01562l55.50049,-5.39551l15.2146,-36.5918l0.44531,-1.08056l5.97974,-5.15723l0.12719,-0.08008c12.92261,-5.6206 26.01856,-7.48291 38.92456,-5.53613l0.45313,0.06885l-0.02881,0.457a36.04753,36.04753 0 0 1 -3.53882,13.48584c-5.74121,11.9082 -41.06421,62.52881 -41.42041,63.03857l-0.15747,0.22559l-76.07351,-3.41892z"/>
 </g>
</svg>