<svg width="976.62205" height="641.53279" xmlns="http://www.w3.org/2000/svg">

 <g>
  <title>background</title>
  <rect fill="none" id="canvas_background" height="602" width="802" y="-1" x="-1"/>
 </g>
 <g>
  <title>Layer 1</title>
  <rect id="svg_1" fill="#e6e6e6" height="412.91039" width="644.72471" y="0.3655" x="331.89733"/>
  <rect id="svg_2" fill="#fff" height="336.69331" width="607.8532" y="52.15476" x="350.33309"/>
  <rect id="svg_3" fill="#6c63ff" height="27.39027" width="644.72471" x="331.62205"/>
  <circle id="svg_4" fill="#ff0000" r="5.07657" cy="14.00335" cx="351.97629"/>
  <circle id="svg_5" fill="#bfbf00" r="5.07657" cy="14.00335" cx="371.2457"/>
  <circle id="svg_6" fill="#007f00" r="5.07657" cy="14.00335" cx="390.51511"/>
  <rect id="svg_7" fill="#e6e6e6" height="27" width="61" y="109.06773" x="410.56916"/>
  <rect id="svg_8" fill="#e6e6e6" height="27" width="61" y="165.06773" x="532.56916"/>
  <rect id="svg_9" fill="#6c63ff" height="27" width="61" y="249.06773" x="410.56916"/>
  <rect id="svg_10" fill="#6c63ff" height="27" width="61" y="305.06773" x="532.56916"/>
  <rect id="svg_11" fill="#6c63ff" height="27" width="61" y="333.06773" x="836.56916"/>
  <rect id="svg_12" fill="#e6e6e6" height="27" width="61" y="221.06773" x="775.56916"/>
  <rect id="svg_13" fill="#6c63ff" height="27" width="122" y="221.06773" x="593.56916"/>
  <rect id="svg_14" fill="#6c63ff" height="27" width="122" y="80.06773" x="593.56916"/>
  <path id="svg_15" fill="#e6e6e6" d="m349.56916,51.06773l0,339l610,0l0,-339l-610,0zm608,28.08349l-58.79981,0l0,-26.08349l58.79981,0l0,26.08349zm-362.79981,196.583l0,-26.083l119.59961,0l0,26.083l-119.59961,0zm119.59961,2l0,26.0835l-119.59961,0l0,-26.0835l119.59961,0zm0,-112.333l0,26.083l-119.59961,0l0,-26.083l119.59961,0zm-119.59961,-2l0,-26.08349l119.59961,0l0,26.08349l-119.59961,0zm0,56.16651l0,-26.0835l119.59961,0l0,26.0835l-119.59961,0zm119.59961,2l0,26.08349l-119.59961,0l0,-26.08349l119.59961,0zm-121.59961,-30.0835l-58.7998,0l0,-26.083l58.7998,0l0,26.083zm0,2l0,26.0835l-58.7998,0l0,-26.0835l58.7998,0zm0,28.0835l0,26.08349l-58.7998,0l0,-26.08349l58.7998,0zm0,28.08349l0,26.083l-58.7998,0l0,-26.083l58.7998,0zm123.59961,0l58.7998,0l0,26.083l-58.7998,0l0,-26.083zm0,-2l0,-26.08349l58.7998,0l0,26.08349l-58.7998,0zm0,-28.08349l0,-26.0835l58.7998,0l0,26.0835l-58.7998,0zm0,-28.0835l0,-26.083l58.7998,0l0,26.083l-58.7998,0zm0,-28.083l0,-26.0835l58.7998,0l0,26.08349l-58.7998,0.00001zm0,-28.08349l0,-26.0835l58.7998,0l0,26.0835l-58.7998,0zm-2,0l-119.59961,0l0,-26.0835l119.59961,0l0,26.0835zm-121.59961,0l-58.7998,0l0,-26.0835l58.7998,0l0,26.0835zm0,2l0,26.08349l-58.7998,0l0,-26.0835l58.7998,0.00001zm-60.7998,26.08349l-58.80079,0l0,-26.0835l58.80079,0l0,26.0835zm0,2l0,26.083l-58.80079,0l0,-26.083l58.80079,0zm0,28.083l0,26.0835l-58.80079,0l0,-26.0835l58.80079,0zm0,28.0835l0,26.08349l-58.80079,0l0,-26.08349l58.80079,0zm0,28.08349l0,26.083l-58.80079,0l0,-26.083l58.80079,0zm0,28.083l0,26.0835l-58.80079,0l0,-26.0835l58.80079,0zm2,0l58.7998,0l0,26.0835l-58.7998,0l0,-26.0835zm58.7998,28.0835l0,26.083l-58.7998,0l0,-26.083l58.7998,0zm2,0l119.59961,0l0,26.083l-119.59961,0l0,-26.083zm121.59961,0l58.7998,0l0,26.083l-58.7998,0l0,-26.083zm0,-2l0,-26.0835l58.7998,0l0,26.0835l-58.7998,0zm60.7998,-26.0835l58.80079,0l0,26.0835l-58.80079,0l0,-26.0835zm0,-2l0,-26.083l58.80079,0l0,26.083l-58.80079,0zm0,-28.083l0,-26.08349l58.80079,0l0,26.08349l-58.80079,0zm0,-28.08349l0,-26.0835l58.80079,0l0,26.0835l-58.80079,0zm0,-28.0835l0,-26.083l58.80079,0l0,26.083l-58.80079,0zm0,-28.083l0,-26.0835l58.80079,0l0,26.08349l-58.80079,0.00001zm0,-28.08349l0,-26.0835l58.80079,0l0,26.0835l-58.80079,0zm0,-28.0835l0,-26.083l58.80079,0l0,26.083l-58.80079,0zm-2,0l-58.7998,0l0,-26.083l58.7998,0l0,26.083zm-60.7998,0l-119.59961,0l0,-26.083l119.59961,0l0,26.083zm-121.59961,0l-58.7998,0l0,-26.083l58.7998,0l0,26.083zm-60.7998,0l-58.80079,0l0,-26.083l58.80079,0l0,26.083zm0,2l0,26.0835l-58.80079,0l0,-26.0835l58.80079,0zm-60.80079,26.0835l-58.7998,0l0,-26.0835l58.7998,0l0,26.0835zm0,2l0,26.08349l-58.7998,0l0,-26.0835l58.7998,0.00001zm0,28.08349l0,26.083l-58.7998,0l0,-26.083l58.7998,0zm0,28.083l0,26.0835l-58.7998,0l0,-26.0835l58.7998,0zm0,28.0835l0,26.08349l-58.7998,0l0,-26.08349l58.7998,0zm0,28.08349l0,26.083l-58.7998,0l0,-26.083l58.7998,0zm0,28.083l0,26.0835l-58.7998,0l0,-26.0835l58.7998,0zm0,28.0835l0,26.083l-58.7998,0l0,-26.083l58.7998,0zm2,0l58.80079,0l0,26.083l-58.80079,0l0,-26.083zm58.80079,28.083l0,26.084l-58.80079,0l0,-26.084l58.80079,0zm2,0l58.7998,0l0,26.084l-58.7998,0l0,-26.084zm60.7998,0l119.59961,0l0,26.084l-119.59961,0l0,-26.084zm121.59961,0l58.7998,0l0,26.084l-58.7998,0l0,-26.084zm60.7998,0l58.80079,0l0,26.084l-58.80079,0l0,-26.084zm0,-2l0,-26.083l58.80079,0l0,26.083l-58.80079,0zm60.80079,-26.083l58.7998,0l0,26.083l-58.7998,0l0,-26.083zm0,-2l0,-26.0835l58.7998,0l0,26.0835l-58.7998,0zm0,-28.0835l0,-26.083l58.7998,0l0,26.083l-58.7998,0zm0,-28.083l0,-26.08349l58.7998,0l0,26.08349l-58.7998,0zm0,-28.08349l0,-26.0835l58.7998,0l0,26.0835l-58.7998,0zm0,-28.0835l0,-26.083l58.7998,0l0,26.083l-58.7998,0zm0,-28.083l0,-26.0835l58.7998,0l0,26.08349l-58.7998,0.00001zm0,-28.08349l0,-26.0835l58.7998,0l0,26.0835l-58.7998,0zm0,-28.0835l0,-26.083l58.7998,0l0,26.083l-58.7998,0zm0,-28.083l0,-26.08351l58.7998,0l0,26.08349l-58.7998,0.00002zm-2,0l-58.80079,0l0,-26.08351l58.80079,0l0,26.08351zm-60.80079,0l-58.7998,0l0,-26.08351l58.7998,0l0,26.08351zm-60.7998,0l-119.59961,0l0,-26.08351l119.59961,0l0,26.08351zm-121.59961,0l-58.7998,0l0,-26.08351l58.7998,0l0,26.08351zm-60.7998,0l-58.80079,0l0,-26.08351l58.80079,0l0,26.08351zm-60.80079,0l-58.7998,0l0,-26.08351l58.7998,0l0,26.08351zm0,2l0,26.083l-58.7998,0l0,-26.083l58.7998,0zm-60.7998,26.083l-58.7998,0l0,-26.083l58.7998,0l0,26.083zm0,2l0,26.0835l-58.7998,0l0,-26.0835l58.7998,0zm0,28.0835l0,26.08349l-58.7998,0l0,-26.0835l58.7998,0.00001zm0,28.08349l0,26.083l-58.7998,0l0,-26.083l58.7998,0zm0,28.083l0,26.0835l-58.7998,0l0,-26.0835l58.7998,0zm0,28.0835l0,26.08349l-58.7998,0l0,-26.08349l58.7998,0zm0,28.08349l0,26.083l-58.7998,0l0,-26.083l58.7998,0zm0,28.083l0,26.0835l-58.7998,0l0,-26.0835l58.7998,0zm0,28.0835l0,26.083l-58.7998,0l0,-26.083l58.7998,0zm0,28.083l0,26.084l-58.7998,0l0,-26.084l58.7998,0zm2,0l58.7998,0l0,26.084l-58.7998,0l0,-26.084zm58.7998,28.084l0,26.083l-58.7998,0l0,-26.083l58.7998,0zm2,0l58.80079,0l0,26.083l-58.80079,0l0,-26.083zm60.80079,0l58.7998,0l0,26.083l-58.7998,0l0,-26.083zm60.7998,0l119.59961,0l0,26.083l-119.59961,0l0,-26.083zm121.59961,0l58.7998,0l0,26.083l-58.7998,0l0,-26.083zm60.7998,0l58.80079,0l0,26.083l-58.80079,0l0,-26.083zm60.80079,0l58.7998,0l0,26.083l-58.7998,0l0,-26.083zm0,-2l0,-26.084l58.7998,0l0,26.084l-58.7998,0zm60.7998,-26.084l58.79981,0l0,26.084l-58.79981,0l0,-26.084zm0,-2l0,-26.083l58.79981,0l0,26.083l-58.79981,0zm0,-28.083l0,-26.0835l58.79981,0l0,26.0835l-58.79981,0zm0,-28.0835l0,-26.083l58.79981,0l0,26.083l-58.79981,0zm0,-28.083l0,-26.08349l58.79981,0l0,26.08349l-58.79981,0zm0,-28.08349l0,-26.0835l58.79981,0l0,26.0835l-58.79981,0zm0,-28.0835l0,-26.083l58.79981,0l0,26.083l-58.79981,0zm0,-28.083l0,-26.0835l58.79981,0l0,26.08349l-58.79981,0.00001zm0,-28.08349l0,-26.0835l58.79981,0l0,26.0835l-58.79981,0zm0,-28.0835l0,-26.083l58.79981,0l0,26.083l-58.79981,0zm-488.40039,-54.1665l0,26.08349l-58.7998,0l0,-26.0835l58.7998,0.00001zm-58.7998,308.917l58.7998,0l0,26.083l-58.7998,0l0,-26.083zm547.20019,26.083l0,-26.083l58.79981,0l0,26.083l-58.79981,0z"/>
  <polygon id="svg_16" fill="#3f3d56" points="257.738 637.661 0 637.661 0 635.555 258.12 635.555 257.738 637.661"/>
  <path id="svg_17" fill="#2f2e41" d="m190.43041,339.72755l-6.68818,158.00884l-4.18011,71.0622s9.1963,15.04845 -4.18011,16.72049s-38.45717,-2.50807 -35.11309,-10.86834s5.85216,-8.36028 5.85216,-8.36028l3.34408,-80.25844l-25.08077,-98.651l-31.76897,106.17527l-6.68817,76.07827s9.19629,11.70437 0,14.21243s-33.441,2.50807 -32.605,-5.01613s4.18014,-7.52425 4.18014,-7.52425l-4.18014,-220.71069l12.54039,-19.22859l124.56777,8.36022z"/>
  <path id="svg_18" fill="#2f2e41" d="m172.03787,580.5029l3.34409,20.90066s19.22856,40.12922 -7.52426,40.12922s-19.22856,-15.88447 -19.22856,-15.88447l2.50807,-45.14541l20.90066,0z"/>
  <path id="svg_19" fill="#2f2e41" d="m58.33838,580.5029l-3.34409,20.90066s-19.22858,40.12922 7.52423,40.12922s19.22859,-15.88447 19.22859,-15.88447l-2.50809,-45.14541l-20.90064,0z"/>
  <path id="svg_20" fill="#ffb9b9" d="m143.61302,103.13239s8.36028,30.09694 10.03232,30.09694s-15.88447,23.40871 -15.88447,23.40871l-25.91685,14.21235l-9.1963,-38.45717s8.36028,-20.90065 6.68818,-31.769l34.27712,2.50817z"/>
  <circle id="svg_21" fill="#ffb9b9" r="30.93295" cy="83.90376" cx="130.2366"/>
  <path id="svg_22" fill="#003f7f" d="m126.05644,148.27769l24.71532,-21.46376l14.57788,7.25129l31.769,20.06461s-8.36028,180.58151 -4.18011,187.26974c0,0 -9.1963,20.90063 -63.53795,8.36024s-68.55408,-14.21242 -68.55408,-14.21242l11.70437,-110.35538l-14.21249,-69.39008l47.73977,-33.38323l14.96216,25.859l5.01613,-0.00001z"/>
  <path id="svg_23" fill="#ffb9b9" d="m44.12595,211.81566l-7.52422,35.11306l0,71.06218s10.86834,45.1454 19.22859,33.441s8.1876,-15.41073 8.1876,-15.41073l-10.69567,-16.35824l5.01613,-66.882l13.32846,-31.9047l-27.54089,-9.06057z"/>
  <path id="svg_24" fill="#ffb9b9" d="m184.03179,230.4878l8.88036,34.95953l-4.11579,70.32019l-12.829,15.65674s-0.67491,3.83858 6.02436,17.11265s23.61189,-32.348 23.61189,-32.348l9.65787,-74.02572l-2.68886,-37.5508l-28.54083,5.87541z"/>
  <path id="svg_25" fill="#2f2e41" d="m100.97572,52.97081s10.03227,-21.73666 29.26088,-16.72053s30.097,12.54038 30.93293,20.0646s-0.418,18.8106 -0.418,18.8106s-2.09008,-15.46647 -15.46648,-12.12238s-34.27707,0.836 -34.27707,0.836l-3.34409,30.09695s-3.76213,-5.43416 -7.94224,-2.09007s-12.12236,-32.18696 1.25407,-38.87517z"/>
  <path id="svg_26" fill="#003f7f" d="m77.56702,154.1299l-19.22859,1.672s-21.73665,59.35782 -19.22859,61.02986s32.605,11.70437 36.78514,9.19627s1.67204,-71.89813 1.67204,-71.89813z"/>
  <path id="svg_27" fill="#003f7f" d="m190.43041,155.80193l6.68823,-1.67206s12.54038,15.88449 16.72049,34.277s10.03232,36.78513 6.68818,36.78513s-43.794,10.87569 -43.794,10.87569l13.6971,-80.26576z"/>
 </g>
</svg>