<svg width="757.96407" height="595.09432" xmlns="http://www.w3.org/2000/svg">

 <g>
  <title>background</title>
  <rect fill="none" id="canvas_background" height="602" width="802" y="-1" x="-1"/>
 </g>
 <g>
  <title>Layer 1</title>
  <path id="svg_1" fill="#3f3d56" d="m62.96549,287.17645a2.89534,2.89534 0 0 0 -2.89209,2.89209l0,299.04737a2.89576,2.89576 0 0 0 2.89209,2.89257l374.9458,0a2.89534,2.89534 0 0 0 2.89161,-2.89257l0,-251.04395a2.89534,2.89534 0 0 0 -2.89161,-2.89258l-215.19433,0a8.76537,8.76537 0 0 1 -5.90674,-2.28222l-48.37891,-43.95752a6.77,6.77 0 0 0 -4.5625,-1.76319l-100.90332,0z"/>
  <path id="svg_2" fill="#e6e6e6" d="m236.12945,248.53174a2.05064,2.05064 0 0 0 -2.80361,0.72816l-111.03628,188.949a2.05062,2.05062 0 0 0 0.72815,2.8036l152.21853,89.45156a2.05063,2.05063 0 0 0 2.8036,-0.72815l111.03629,-188.949a2.05063,2.05063 0 0 0 -0.72815,-2.8036l-152.21853,-89.45157z"/>
  <path id="svg_3" fill="#fff" d="m238.45947,257.50321a2.05063,2.05063 0 0 0 -2.8036,0.72816l-104.39484,177.64735a2.05063,2.05063 0 0 0 0.72816,2.8036l140.91705,82.81024a2.05062,2.05062 0 0 0 2.8036,-0.72816l104.39487,-177.64734a2.05064,2.05064 0 0 0 -0.72816,-2.80361l-140.91708,-82.81024z"/>
  <path id="svg_4" fill="#e6e6e6" d="m211.83433,345.25916l103.83364,61.01807a3.07232,3.07232 0 1 0 3.11316,-5.29763l-103.83364,-61.01809a3.07233,3.07233 0 1 0 -3.11316,5.29764l0,0.00001z"/>
  <path id="svg_5" fill="#e6e6e6" d="m239.94715,295.37895l68.8864,40.48125c0.97052,0.57033 2.45422,-0.15325 3.31389,-1.61613s0.7698,-3.11118 -0.20072,-3.68151l-68.8864,-40.48124c-0.97064,-0.5704 -2.45422,0.15324 -3.31389,1.61613s-0.76991,3.1111 0.20072,3.6815z"/>
  <path id="svg_6" fill="#e6e6e6" d="m231.02274,310.5655l68.8864,40.48125c0.97052,0.57033 2.45422,-0.15325 3.31389,-1.61613s0.7698,-3.11117 -0.20073,-3.6815l-68.88639,-40.48125c-0.97064,-0.5704 -2.45422,0.15325 -3.31389,1.61613s-0.76991,3.11116 0.20072,3.6815z"/>
  <path id="svg_7" fill="#e6e6e6" d="m201.76842,362.38816l103.83361,61.01808a3.07233,3.07233 0 0 0 3.11317,-5.29764l-103.83361,-61.01807a3.07233,3.07233 0 0 0 -3.11317,5.29764l0,-0.00001z"/>
  <path id="svg_8" fill="#e6e6e6" d="m191.70251,379.51716l103.83364,61.0181a3.07233,3.07233 0 0 0 3.11317,-5.29764l-103.83364,-61.01807a3.07232,3.07232 0 1 0 -3.11317,5.29763l0,-0.00002z"/>
  <path id="svg_9" fill="#e6e6e6" d="m181.63661,396.64616l103.83364,61.01808a3.07233,3.07233 0 0 0 3.11316,-5.29764l-103.83364,-61.01803a3.07232,3.07232 0 1 0 -3.11316,5.29763l0,-0.00004z"/>
  <path id="svg_10" fill="#e6e6e6" d="m171.5707,413.77522l103.83364,61.01807a3.07232,3.07232 0 1 0 3.11317,-5.29763l-103.83364,-61.01807a3.07232,3.07232 0 0 0 -3.11317,5.29763z"/>
  <path id="svg_11" fill="#e6e6e6" d="m161.50479,430.90424l103.83364,61.01807a3.07232,3.07232 0 0 0 3.11317,-5.29763l-103.83364,-61.01807a3.07232,3.07232 0 1 0 -3.11317,5.29763z"/>
  <circle id="svg_12" fill="#e6e6e6" r="16.18092" cy="355.40055" cx="330.36129"/>
  <path id="svg_13" fill="#e6e6e6" d="m282.8713,387.00416"/>
  <path id="svg_14" fill="#e6e6e6" d="m106.94364,302.94723a2.05063,2.05063 0 0 0 -2.42951,1.5773l-45.59333,214.36422a2.05062,2.05062 0 0 0 1.5773,2.42951l172.69322,36.73029a2.05063,2.05063 0 0 0 2.42951,-1.5773l45.59333,-214.36422a2.05063,2.05063 0 0 0 -1.5773,-2.42951l-172.69322,-36.73029z"/>
  <path id="svg_15" fill="#fff" d="m111.99089,310.72163a2.05063,2.05063 0 0 0 -2.42951,1.5773l-42.86626,201.54243a2.05063,2.05063 0 0 0 1.5773,2.42951l159.87161,34.00329a2.05063,2.05063 0 0 0 2.42951,-1.5773l42.86626,-201.54244a2.05064,2.05064 0 0 0 -1.5773,-2.42951l-159.87161,-34.00328z"/>
  <path id="svg_16" fill="#e6e6e6" d="m232.28052,427.44893l-117.80015,-25.055a3.07233,3.07233 0 1 1 1.27832,-6.01021l117.80015,25.055a3.07233,3.07233 0 1 1 -1.27832,6.01021z"/>
  <path id="svg_17" fill="#e6e6e6" d="m245.20161,371.66891l-78.15221,-16.62227c-1.10106,-0.23419 -1.70751,-1.76949 -1.35451,-3.42914s1.53177,-2.81526 2.63283,-2.58107l78.15221,16.62227c1.10119,0.23421 1.70751,1.76949 1.35452,3.42914s-1.53165,2.81532 -2.63284,2.58107z"/>
  <path id="svg_18" fill="#e6e6e6" d="m241.5371,388.89816l-78.15221,-16.62227c-1.10106,-0.23418 -1.70751,-1.76948 -1.35452,-3.42914s1.53178,-2.81525 2.63284,-2.58107l78.15221,16.62227c1.10119,0.23422 1.70751,1.76949 1.35451,3.42914s-1.53164,2.81531 -2.63283,2.58107z"/>
  <path id="svg_19" fill="#e6e6e6" d="m228.14729,446.88195l-117.80015,-25.055a3.07233,3.07233 0 0 1 1.27832,-6.01021l117.80015,25.055a3.07233,3.07233 0 1 1 -1.27832,6.01022l0,-0.00001z"/>
  <path id="svg_20" fill="#e6e6e6" d="m224.01403,466.31496l-117.80016,-25.055a3.07233,3.07233 0 0 1 1.27832,-6.01021l117.80015,25.055a3.07232,3.07232 0 1 1 -1.27831,6.01021z"/>
  <path id="svg_21" fill="#e6e6e6" d="m219.88084,485.74798l-117.80015,-25.055a3.07233,3.07233 0 1 1 1.27832,-6.01021l117.80015,25.055a3.07233,3.07233 0 0 1 -1.27832,6.01021z"/>
  <path id="svg_22" fill="#e6e6e6" d="m215.74761,505.181l-117.80015,-25.055a3.07233,3.07233 0 1 1 1.27832,-6.01021l117.80015,25.055a3.07233,3.07233 0 1 1 -1.27832,6.01021z"/>
  <path id="svg_23" fill="#e6e6e6" d="m211.61438,524.61402l-117.80015,-25.055a3.07233,3.07233 0 0 1 1.27832,-6.01021l117.80015,25.055a3.07233,3.07233 0 1 1 -1.27832,6.01021z"/>
  <circle id="svg_24" fill="#e6e6e6" r="16.18092" cy="354.93571" cx="137.97611"/>
  <path id="svg_25" fill="#e6e6e6" d="m151.68847,410.30773"/>
  <path id="svg_26" fill="#ffb9b9" d="m475.83447,314.41601l0,0a12.585,12.585 0 0 0 19.26769,-3.49914l13.27313,-24.31751l-10.03784,-8.32117l-21.8817,16.578a12.585,12.585 0 0 0 -0.62128,19.55982z"/>
  <path id="svg_27" fill="#003f7f" d="m491.37516,280.50848l15.5,12.5l84.5,-65.5l-5,-114l0,0a46.0386,46.0386 0 0 0 -17.02261,31.10256l-14.47738,64.39742l-63.50001,71.50002z"/>
  <polygon id="svg_28" fill="#ffb9b9" points="654.375 545.508 675.375 545.508 677.375 361.508 635.375 361.508 654.375 545.508"/>
  <polygon id="svg_29" fill="#ffb9b9" points="602.375 555.508 623.375 555.508 625.375 359.508 583.375 357.508 602.375 555.508"/>
  <path id="svg_30" fill="#2f2e41" d="m575.37516,377.50848l52,2l2,-11l3,15l48,-2c-0.00806,-48.63568 -1.0459,-102.37713 5,-121l-111,11c-8.74206,37.68216 -9.81933,73.38056 1,106z"/>
  <path id="svg_31" fill="#2f2e41" d="m666.46803,593.50848l0,0c11.22515,0 20.02546,4.35832 19.00335,-6.8202l-2.90746,-37.798a8.26253,8.26253 0 0 0 -5.18883,-7.38184l0,0q-12,-14.0669 -24,-3l0,0a19.91524,19.91524 0 0 0 -4.33654,11.39426l-1.62781,37.53954c-0.56306,10.91092 8.13192,6.06624 19.05729,6.06624z"/>
  <path id="svg_32" fill="#2f2e41" d="m563.95894,594.03852l53.37162,-1.41273a9.04738,9.04738 0 0 0 7.7986,-9.2354l1.00558,-26.08091a4.93728,4.93728 0 0 0 -4.55243,-5.16968l-8.20715,-0.63132c-0.97339,-8.92987 -6.41015,-11.09637 -14,-10l-24,27l-15.81491,4.42818a10.8023,10.8023 0 0 0 -7.77016,12.00465l0,0a10.80232,10.80232 0 0 0 12.16885,9.09721z"/>
  <circle id="svg_33" fill="#ffb9b9" r="31" cy="44.50848" cx="625.37516"/>
  <path id="svg_34" fill="#ffb9b9" d="m609.37516,99.50848l53,-15c-11.85315,-4.61091 -16.42871,-12.65394 -14,-24l-35,0c4.49951,17.0923 4.5177,31.04044 -4,39z"/>
  <path id="svg_35" fill="#003f7f" d="m571.37516,284.50848c29.91063,3.82255 57.46866,-7.75859 83.50015,-16.5c11.75162,-3.9462 23.59024,0.17342 34.49985,-6.5c-4.71762,-46.46695 -0.13723,-98.808 9.88374,-154.58625a13.21725,13.21725 0 0 0 -8.9863,-14.94638l-32.89744,-10.46737l-29,10l-15,3l-30.8877,20.87008a11.292,11.292 0 0 0 -4.80753,11.2805a370.22046,370.22046 0 0 1 -6.30477,157.84942z"/>
  <polygon id="svg_36" fill="#ffb9b9" points="655.375 268.508 665.375 294.508 675.375 279.508 662.375 266.508 655.375 268.508"/>
  <path id="svg_37" fill="#2f2e41" d="m595.62755,33.45493c12.05338,-7.73578 24.07331,-10.28383 36.06267,-8.1073a27.082,27.082 0 0 1 21.26,33.37018q-0.03733,0.14522 -0.0751,0.29067l1.79207,-3.36765a45.23621,45.23621 0 0 0 4.6058,-29.15735l0,0a32.09246,32.09246 0 0 0 -32.93442,-26.45532l-6.7452,0.281a32.33192,32.33192 0 0 0 -30.8143,28.977l0,0a4.443,4.443 0 0 0 6.84848,4.16877z"/>
  <path id="svg_38" fill="#003f7f" d="m660.37516,266.50848l14,18l49,-73l-4.23791,-74.16344a56.09609,56.09609 0 0 0 -28.76206,-45.83654l0,0l1,114l-31.00003,60.99998z"/>
  <path id="svg_39" fill="#6c63ff" d="m344.29392,201.95096a2.05063,2.05063 0 0 0 -2.82662,0.6329l-117.36457,185.08466a2.05062,2.05062 0 0 0 0.63289,2.82662l149.10541,94.54967a2.05061,2.05061 0 0 0 2.82662,-0.6329l117.36458,-185.08465a2.05062,2.05062 0 0 0 -0.6329,-2.82663l-149.10541,-94.54967z"/>
  <path id="svg_40" fill="#fff" d="m346.31911,210.99616a2.05062,2.05062 0 0 0 -2.82663,0.6329l-110.34463,174.0141a2.05062,2.05062 0 0 0 0.6329,2.82663l138.03509,87.52983a2.05062,2.05062 0 0 0 2.82663,-0.6329l110.34463,-174.01414a2.05062,2.05062 0 0 0 -0.6329,-2.82663l-138.03509,-87.52979z"/>
  <path id="svg_41" fill="#6c63ff" d="m418.45064,362.2968l-101.71007,-64.49564a3.07232,3.07232 0 0 1 3.29059,-5.18929l101.71007,64.49564a3.07232,3.07232 0 1 1 -3.29059,5.18929z"/>
  <path id="svg_42" fill="#6c63ff" d="m449.9813,314.50368l-67.47756,-42.78839c-0.95067,-0.60283 -0.98473,-2.25322 -0.07607,-3.68618s2.416,-2.10594 3.36667,-1.50311l67.47755,42.78839c0.95079,0.60291 0.98473,2.25322 0.07607,3.68619s-2.41588,2.10601 -3.36666,1.5031z"/>
  <path id="svg_43" fill="#6c63ff" d="m440.54826,329.37964l-67.47756,-42.78839c-0.95067,-0.60283 -0.98473,-2.25321 -0.07607,-3.68618s2.416,-2.10594 3.36667,-1.5031l67.47755,42.78838c0.95079,0.60291 0.98473,2.25322 0.07607,3.68619s-2.41589,2.10601 -3.36666,1.5031z"/>
  <path id="svg_44" fill="#6c63ff" d="m407.81103,379.07551l-101.71006,-64.49567a3.07233,3.07233 0 0 1 3.2906,-5.18929l101.71007,64.49567a3.07232,3.07232 0 0 1 -3.29059,5.18929l-0.00002,0z"/>
  <path id="svg_45" fill="#6c63ff" d="m397.17145,395.85421l-101.71007,-64.49567a3.07233,3.07233 0 0 1 3.2906,-5.18929l101.71005,64.49567a3.07233,3.07233 0 1 1 -3.2906,5.18929l0.00002,0z"/>
  <path id="svg_46" fill="#6c63ff" d="m386.53186,412.63291l-101.71007,-64.49567a3.07233,3.07233 0 1 1 3.2906,-5.18929l101.71007,64.49567a3.07233,3.07233 0 0 1 -3.2906,5.18929z"/>
  <path id="svg_47" fill="#6c63ff" d="m375.89227,429.41161l-101.71007,-64.49567a3.07232,3.07232 0 0 1 3.29059,-5.18929l101.71008,64.49567a3.07233,3.07233 0 0 1 -3.2906,5.18929z"/>
  <path id="svg_48" fill="#6c63ff" d="m365.25268,446.19031l-101.71007,-64.49567a3.07232,3.07232 0 1 1 3.29059,-5.18928l101.71007,64.49566a3.07232,3.07232 0 1 1 -3.29059,5.18929z"/>
  <circle id="svg_49" fill="#6c63ff" r="16.18092" cy="261.4905" cx="355.28753"/>
  <path id="svg_50" fill="#e6e6e6" d="m348.86649,318.1726"/>
  <path id="svg_51" fill="#e5e5e5" d="m37.48112,365.72235a2.8917,2.8917 0 0 0 -2.874,3.21582l25.0708,222.502a2.89026,2.89026 0 0 0 2.874,2.56835l375.77246,0a2.88955,2.88955 0 0 0 2.874,-2.56835l25.07032,-222.502a2.89282,2.89282 0 0 0 -0.7168,-2.251a2.85878,2.85878 0 0 0 -2.15625,-0.96485l-425.91453,0.00003z"/>
  <path id="svg_52" fill="#fff" d="m71.66722,403.09191l120.43341,-0.65221a3.07233,3.07233 0 0 0 -0.03328,-6.14456l-120.4334,0.6522a3.07233,3.07233 0 0 0 0.03327,6.14457z"/>
  <path id="svg_53" fill="#fff" d="m71.66722,422.09191l71.43341,-0.65221a3.07233,3.07233 0 0 0 -0.03328,-6.14456l-71.4334,0.6522a3.07233,3.07233 0 0 0 0.03327,6.14457z"/>
  <polygon id="svg_54" fill="#3f3d56" points="757.569 595.094 0 595.094 0 592.913 757.964 592.913 757.569 595.094"/>
 </g>
</svg>