<svg width="998.2822300000001" height="697.5511599999999" xmlns="http://www.w3.org/2000/svg">
 <title>file_manager</title>

 <g>
  <title>background</title>
  <rect fill="none" id="canvas_background" height="602" width="802" y="-1" x="-1"/>
 </g>
 <g>
  <title>Layer 1</title>
  <rect id="svg_1" fill="#f2f2f2" height="120" width="103" y="24" x="149.66797"/>
  <rect id="svg_2" fill="#f2f2f2" height="120" width="103" y="94" x="427.66797"/>
  <rect id="svg_3" fill="#f2f2f2" height="120" width="103" y="24" x="706.66797"/>
  <rect id="svg_4" fill="#3f3d56" height="67.57001" width="270.98999" y="430.33668" x="228.62109"/>
  <polygon id="svg_5" fill="#3f3d56" points="784.198 696.3 545.438 696.3 612.488 580.17 664.818 489.53 784.198 696.3"/>
  <rect id="svg_6" fill="#3f3d56" height="180.5" width="396.83997" y="515.84998" x="136.93799"/>
  <circle id="svg_7" fill="#6c63ff" r="47.05512" cy="442.31496" cx="664.40025"/>
  <rect id="svg_8" fill="#3f3d56" height="2" width="860.78955" y="695.55116" x="1.56445"/>
  <polygon id="svg_9" opacity="0.1" points="499.608 434.87 499.608 497.91 435.798 497.91 474.798 430.34 496.998 430.34 499.608 434.87"/>
  <polygon id="svg_10" opacity="0.1" points="533.778 515.85 533.778 696.35 321.228 696.35 321.428 696 425.438 515.85 533.778 515.85"/>
  <polygon id="svg_11" opacity="0.1" points="679.538 696.3 545.438 696.3 612.488 580.17 615.488 585.36 679.538 696.3"/>
  <polygon id="svg_12" fill="#6c63ff" points="664.628 696.45 335.168 696.45 335.428 696 443.478 508.85 499.898 411.12 600.488 585.36 664.538 696.3 664.628 696.45"/>
  <circle id="svg_13" fill="#3f3d56" r="20.26772" cy="393.31496" cx="499.40025"/>
  <path id="svg_14" fill="#3f3d56" d="m443.4375,399.76563a368.02149,368.02149 0 0 1 -120.72217,-20.26465c-52.05222,-17.99707 -94.69483,-42.8208 -126.74222,-73.78174c-60.62109,-58.56592 -110.32129,-67.39209 -141.33349,-64.48584c-33.57032,3.14746 -53.11084,20.33789 -53.3042,20.51123l-1.33545,-1.48877c0.19726,-0.17725 20.14062,-17.75781 54.32324,-21.00146c20.04541,-1.90088 41.00781,1.41113 62.30664,9.84716c26.56055,10.52 53.72314,29.085 80.73291,55.1792c31.83643,30.75733 74.231,55.4292 126.00586,73.32959c95.04736,32.86133 202.16943,24.90528 293.89892,-21.8291c30.3711,-15.47461 60.38868,-26.03711 89.21778,-31.394c36.35351,-6.75684 70.83008,-5.18848 102.47949,4.6582c69.54883,21.63721 117.05371,20.48975 144.6582,15.71924c29.78418,-5.148 43.29786,-15.45068 43.43067,-15.5542l1.22851,1.57861c-0.55957,0.43506 -14.0459,10.71387 -44.31933,15.94629c-27.82227,4.80957 -75.667,5.97461 -145.5918,-15.78076c-70.80078,-22.02441 -142.50879,2.312 -190.19531,26.60792a383.87946,383.87946 0 0 1 -145.63664,41.08491q-14.60308,1.11768 -29.10161,1.11817z"/>
  <path id="svg_15" fill="#3f3d56" d="m217.64892,323.34815l-1.43115,-1.397a73.10676,73.10676 0 0 0 14.66211,-25.65088c4.86572,-14.64306 7.24268,-37.769 -9.06787,-64.7832c-16.688,-27.63965 -17.439,-50.08935 -15.13086,-64.05517c2.51221,-15.19629 8.9209,-23.71436 9.19238,-24.06934l1.58936,1.21436c-0.064,0.08349 -6.417,8.55615 -8.82764,23.29931c-2.22559,13.61133 -1.44922,35.51709 14.88867,62.57666c16.72754,27.70508 14.24951,51.47315 9.22559,66.5332c-5.44385,16.31741 -14.7085,25.93069 -15.10059,26.33206z"/>
  <path id="svg_16" fill="#ffaaaa" d="m292.66797,145l-144,0l0,-144l144,0l0,144zm-142,-2l140,0l0,-140l-140,0l0,140z"/>
  <path id="svg_17" fill="#3f3d56" d="m496.64941,394.34766l-1.43164,-1.39649a73.122,73.122 0 0 0 14.66211,-25.65039c4.86621,-14.64355 7.24219,-37.76953 -9.06836,-64.78369c-16.6875,-27.63965 -17.43848,-50.08935 -15.12988,-64.05517c2.51172,-15.19629 8.91992,-23.71436 9.19238,-24.06934l1.58887,1.21436c-0.06348,0.08349 -6.417,8.55615 -8.82813,23.29931c-2.22558,13.61133 -1.44922,35.51709 14.88965,62.57666c16.72754,27.70508 14.249,51.47315 9.22461,66.53369c-5.44336,16.31739 -14.70801,25.92969 -15.09961,26.33106z"/>
  <path id="svg_18" fill="#ffaaaa" d="m571.66797,216l-144,0l0,-144l144,0l0,144zm-142,-2l140,0l0,-140l-140,0l0,140z"/>
  <path id="svg_19" fill="#3f3d56" d="m774.64941,322.34815l-1.43164,-1.397a73.11541,73.11541 0 0 0 14.66211,-25.65088c4.86621,-14.64306 7.24219,-37.769 -9.06836,-64.7832c-16.6875,-27.63965 -17.43848,-50.08935 -15.12988,-64.05517c2.51172,-15.19629 8.91992,-23.71436 9.19238,-24.06934l1.58887,1.21436c-0.06348,0.08349 -6.417,8.55615 -8.82813,23.29931c-2.22558,13.61133 -1.44922,35.51709 14.88965,62.57666c16.72754,27.70508 14.249,51.47315 9.22461,66.5332c-5.44336,16.31741 -14.70801,25.93069 -15.09961,26.33206z"/>
  <path id="svg_20" fill="#ffaaaa" d="m849.66797,144l-144,0l0,-144l144,0l0,144zm-142,-2l140,0l0,-140l-140,0l0,140z"/>
  <rect id="svg_21" fill="#3f3d56" height="2" width="88" y="43" x="178.66797"/>
  <rect id="svg_22" fill="#3f3d56" height="2" width="88" y="65" x="178.66797"/>
  <rect id="svg_23" fill="#3f3d56" height="2" width="88" y="87" x="178.66797"/>
  <rect id="svg_24" fill="#3f3d56" height="2" width="88" y="111" x="455.66797"/>
  <rect id="svg_25" fill="#3f3d56" height="2" width="88" y="133" x="455.66797"/>
  <rect id="svg_26" fill="#3f3d56" height="2" width="88" y="155" x="455.66797"/>
  <rect id="svg_27" fill="#3f3d56" height="2" width="88" y="43" x="733.66797"/>
  <rect id="svg_28" fill="#3f3d56" height="2" width="88" y="65" x="733.66797"/>
  <rect id="svg_29" fill="#3f3d56" height="2" width="88" y="87" x="733.66797"/>
  <rect id="svg_32" fill="#f2f2f2" height="120" width="103" y="558" x="191.66797"/>
  <path id="svg_33" fill="#fff" d="m334.66797,678l-144,0l0,-144l144,0l0,144zm-142,-2l140,0l0,-140l-140,0l0,140z"/>
  <rect id="svg_34" fill="#6c63ff" height="2" width="88" y="577" x="218.66797"/>
  <rect id="svg_35" fill="#6c63ff" height="2" width="88" y="599" x="218.66797"/>
  <rect id="svg_36" fill="#6c63ff" height="2" width="88" y="621" x="218.66797"/>
  <path id="svg_37" fill="#2f2e41" d="m226.53833,217.18647l-0.00006,0c-24.032,0 -43.51376,21.62049 -43.51376,48.29071l0,33.8848l10.42141,0l6.0334,-12.55459l-1.50836,12.55459l66.98482,0l5.48492,-11.41327l-1.37121,11.41327l7.54176,0l0,-26.60564c0,-30.69036 -22.41841,-55.56987 -50.07292,-55.56987z"/>
  <path id="svg_38" fill="#2f2e41" d="m176.6792,438.57175l-26.71709,11.35476l-92.84187,75.47577a27.32591,27.32591 0 0 0 -6.01134,14.6944c-0.66793,8.683 -28.72087,54.1021 -18.702,60.11344s46.087,24.04538 48.09075,12.02269s12.69062,-63.45308 12.69062,-63.45308l89.50224,-80.15126l-6.01131,-30.05672z"/>
  <path id="svg_39" fill="#2f2e41" d="m71.81464,602.2139l-11.35476,33.39636s12.02269,12.69062 6.01134,23.37745l0,36.736l-9.351,0l-2.67171,-19.36989s-10.65081,19.12517 -16.03025,19.36989c-11.27717,0.513 -33.60924,4.52434 -34.27717,-1.487s16.91107,-11.87155 16.91107,-11.87155l18.702,-51.43039l8.01512,-31.39258l24.04536,2.67171z"/>
  <path id="svg_40" fill="#2f2e41" d="m246.14363,429.8887s6.01134,58.77759 -11.35476,69.46442s-94.17776,44.75112 -94.17776,44.75112s32.72843,30.72465 26.04916,38.07185s-36.736,27.385 -40.74356,23.37745s-48.75868,-52.09832 -43.41526,-67.46064s79.48333,-65.45686 79.48333,-65.45686l8.683,-31.39258l2.67171,-25.38123l28.05294,-18.034l44.7512,32.06047z"/>
  <circle id="svg_41" fill="#ffb9b9" r="27.84476" cy="265.19486" cx="215.54264"/>
  <path id="svg_42" fill="#ffb9b9" d="m237.12661,276.59942s-1.33585,25.38123 19.36989,33.39635s-51.43039,60.11345 -51.43039,60.11345l0,-58.10964s9.351,-10.01891 0,-25.38124l32.0605,-10.01892z"/>
  <path id="svg_43" fill="#ffb9b9" d="m281.54377,395.82441l-5.34342,26.04917l-16.03024,89.50223s13.35854,38.07185 -4.67549,37.40392s-9.351,-41.41148 -9.351,-41.41148l9.351,-74.13992l0,-28.72086l26.04915,-8.68306z"/>
  <path id="svg_44" fill="#ffb9b9" d="m166.6603,383.1338l-6.01135,23.37745l-27.385,66.12479s-18.702,31.39257 -3.33964,30.72464s15.36233,-30.72464 15.36233,-30.72464l31.39257,-53.43418l0,-30.05672l-10.01891,-6.01134z"/>
  <path id="svg_45" fill="#2f2e41" d="m161.98481,578.16858l22.04159,20.70574s15.36233,-3.33964 21.37367,14.6944s10.01891,29.38879 10.01891,29.38879l-8.01513,4.67549l-10.0189,-14.02647s-6.01135,25.38123 -12.02269,27.385s-36.06807,15.36233 -33.39636,0l14.6944,-21.37367s2.00378,-24.04537 -4.00757,-26.04915s-22.04162,-22.04164 -22.04162,-22.04164l21.3737,-13.35849z"/>
  <path id="svg_46" fill="#3f3d56" d="m247.20247,450.59444s-62.78515,-22.70952 -66.79272,-20.70574a30.12046,30.12046 0 0 1 -9.40793,2.44178l0.057,-9.121s20.70574,-7.3472 32.06051,-2.67171s46.087,25.38123 46.087,25.38123l-2.00386,4.67544z"/>
  <path id="svg_47" fill="#003f7f" d="m209.07367,356.75067s18.034,-20.70574 23.37745,-33.39635a32.79069,32.79069 0 0 1 17.3353,-17.04617s40.10644,9.031 39.43851,25.06129s-25.38123,40.74356 -25.38123,40.74356s3.33963,88.83431 -14.6944,87.49846a38.68242,38.68242 0 0 1 -8.01513,-16.03026c-2.00378,-9.351 -64.121,-19.36988 -64.121,-19.36988s-5.34342,9.351 -6.01135,5.34341s5.34342,-102.19285 5.34342,-102.19285l31.85141,-21.05373l0.87702,50.44252z"/>
  <path id="svg_48" fill="#003f7f" d="m284.07988,324.917l0.44725,0.251a9.215,9.215 0 0 1 4.7053,8.03735l-0.00685,49.56884a9.28769,9.28769 0 0 0 3.3039,7.0688c2.57292,2.18849 4.95882,5.34208 0.03509,6.98332c-8.01513,2.67171 -39.40771,16.03026 -40.07563,11.35477s-2.00379,-10.01891 0,-10.01891c1.5687,0 10.91537,-47.89585 18.42554,-68.37431a9.21645,9.21645 0 0 1 13.1654,-4.87086z"/>
  <path id="svg_49" fill="#003f7f" d="m185.36226,325.02413l-9.351,2.67171l-10.68684,46.087s-12.69061,2.67171 -8.68305,7.3472s20.70574,16.69815 20.70574,16.69815l8.01515,-72.80406z"/>
  <path id="svg_50" fill="#2f2e41" d="m238.9085,230.48896a22.82089,22.82089 0 0 0 -18.00636,-9.18879l-0.8543,0c-16.47157,0 -29.82435,14.90488 -29.82435,33.291l0,0.00007l5.51919,0l0.89134,-6.78453l1.30687,6.78453l32.734,0l2.74249,-5.73984l-0.68564,5.73984l6.43972,0q4.50748,22.38537 -12.95306,44.77074l10.9699,0l5.48491,-11.47968l-1.37121,11.47968l20.9113,0l4.11371,-26.40333c-0.00001,-19.77364 -11.48908,-36.5413 -27.41851,-42.46969z"/>
  <rect id="svg_51" opacity="0.1" height="33.90002" width="104" y="430.33668" x="311.14111"/>
  <rect id="svg_52" fill="#6c63ff" height="58" width="94" y="401.2367" x="317.14111"/>
 </g>
</svg>