<svg width="811.75984" height="620" xmlns="http://www.w3.org/2000/svg">

 <g>
  <title>background</title>
  <rect fill="none" id="canvas_background" height="602" width="802" y="-1" x="-1"/>
 </g>
 <g>
  <title>Layer 1</title>
  <path id="svg_2" fill="#fff" d="m125.48403,526.55063q-11.66777,16.76675 -22.04379,34.3838q-10.36341,17.60241 -19.37144,35.9573q-5.03919,10.26928 -9.63774,20.74671c-0.33941,0.773 0.80562,1.44544 1.14941,0.66249q8.21254,-18.70334 17.82456,-36.7486q9.6061,-18.02687 20.56148,-35.2903q6.12971,-9.65806 12.66693,-19.04891c0.48734,-0.7003 -0.66386,-1.36023 -1.14941,-0.66249z"/>
  <path id="svg_3" fill="#fff" d="m133.80726,552.42374a36.42583,36.42583 0 0 1 -23.9464,13.87842a34.62039,34.62039 0 0 1 -7.99383,0.15838c-0.8516,-0.08051 -0.85755,1.24678 -0.01326,1.32661a37.74921,37.74921 0 0 0 27.36864,-8.64847a35.94791,35.94791 0 0 0 5.73426,-6.05245c0.51143,-0.68053 -0.64145,-1.33842 -1.14941,-0.66249z"/>
  <path id="svg_4" fill="#fff" d="m83.88338,593.63185a30.495,30.495 0 0 1 -3.36463,-6.22033a32.17041,32.17041 0 0 1 -2.06693,-15.79595q1.4428,-4.30709 3.28655,-8.45606a0.75827,0.75827 0 0 1 0.06128,0.74918a29.11531,29.11531 0 0 0 -1.85428,6.46168a30.74813,30.74813 0 0 0 5.08981,22.60357a0.53935,0.53935 0 0 1 0.08813,0.51977a0.72267,0.72267 0 0 1 -1.23993,0.13814z"/>
  <path id="svg_5" fill="#fff" d="m110.69714,526.61825a30.873,30.873 0 0 0 1.36,19.17961a0.66706,0.66706 0 0 0 0.90485,0.24695a0.67955,0.67955 0 0 0 0.24695,-0.90486a29.38117,29.38117 0 0 1 -1.23217,-18.17246a0.66361,0.66361 0 0 0 -1.27965,-0.34924l0.00002,0z"/>
  <path id="svg_7" fill="#fff" d="m76.57405,481.608q-2.544,20.26793 -3.54911,40.6888q-1.00074,20.40206 -0.45166,40.84086q0.3078,11.43489 1.10248,22.84944c0.0585,0.84217 1.38487,0.90579 1.32562,0.05274q-1.4154,-20.37786 -1.28578,-40.823q0.13295,-20.42616 1.81535,-40.803q0.94185,-11.4002 2.36872,-22.75305c0.10626,-0.84654 -1.21975,-0.89619 -1.32562,-0.05275l0,-0.00004z"/>
  <path id="svg_8" fill="#fff" d="m95.9634,500.65387a36.42578,36.42578 0 0 1 -14.75918,23.41381a34.6199,34.6199 0 0 1 -7.00546,3.85357c-0.79154,0.32429 -0.18026,1.50245 0.6045,1.181a37.74923,37.74923 0 0 0 20.21922,-20.37208a35.948,35.948 0 0 0 2.26654,-8.02351c0.13678,-0.84022 -1.18977,-0.88729 -1.32562,-0.05274l0,-0.00005z"/>
  <path id="svg_9" fill="#fff" d="m70.89479,560.33692a30.49551,30.49551 0 0 1 -5.86906,-3.94554a32.17063,32.17063 0 0 1 -9.168,-13.02816q-0.723,-4.4844 -1.01758,-9.015a0.75824,0.75824 0 0 1 0.40228,0.635a29.11512,29.11512 0 0 0 1.35951,6.58357a30.7482,30.7482 0 0 0 15.00719,17.65254a0.5393,0.5393 0 0 1 0.31949,0.41935a0.72267,0.72267 0 0 1 -1.03383,0.69824z"/>
  <path id="svg_10" fill="#fff" d="m63.51076,488.53667a30.873,30.873 0 0 0 10.11372,16.353a0.66707,0.66707 0 0 0 0.916,-0.20163a0.67954,0.67954 0 0 0 -0.20164,-0.916a29.38112,29.38112 0 0 1 -9.53266,-15.52047a0.66361,0.66361 0 0 0 -1.29544,0.28516l0.00002,-0.00006z"/>
  <path id="svg_12" fill="#fff" d="m20.10214,529.41313q8.772,18.44757 18.92306,36.1952q10.14459,17.72943 21.61482,34.65515q6.41775,9.4691 13.2348,18.65884c0.50285,0.6781 1.6547,0.01736 1.14536,-0.66949q-12.16737,-16.40783 -23.06917,-33.70442q-10.88877,-17.28237 -20.44541,-35.35767q-5.34613,-10.11288 -10.25811,-20.44709c-0.36638,-0.77051 -1.5104,-0.09821 -1.14535,0.66948z"/>
  <path id="svg_13" fill="#fff" d="m46.69675,535.01854a36.4258,36.4258 0 0 1 0.17395,27.67689a34.61982,34.61982 0 0 1 -3.82731,7.01984c-0.49229,0.69954 0.65729,1.363 1.14536,0.66949a37.74921,37.74921 0 0 0 6.06476,-28.05454a35.948,35.948 0 0 0 -2.41141,-7.98116c-0.33727,-0.78162 -1.48034,-0.10685 -1.14535,0.66948z"/>
  <path id="svg_14" fill="#fff" d="m57.7174,598.80763a30.495,30.495 0 0 1 -7.07011,-0.1636a32.17048,32.17048 0 0 1 -14.74127,-6.0398q-3.02434,-3.38909 -5.71256,-7.0479a0.75827,0.75827 0 0 1 0.68093,0.31836a29.11553,29.11553 0 0 0 4.69117,4.815a30.74817,30.74817 0 0 0 22.15184,6.79144a0.53938,0.53938 0 0 1 0.495,0.18127a0.72268,0.72268 0 0 1 -0.495,1.14523z"/>
  <path id="svg_15" fill="#fff" d="m12.82675,542.28657a30.873,30.873 0 0 0 17.32878,8.33189c0.3581,0.04766 0.65985,-0.339 0.66323,-0.66323a0.67954,0.67954 0 0 0 -0.66323,-0.66323a29.38112,29.38112 0 0 1 -16.39083,-7.94337c-0.61481,-0.59262 -1.554,0.34414 -0.938,0.93794l0.00005,0z"/>
  <path id="svg_16" fill="#ffb8b8" d="m165.86132,444.24891a10.74268,10.74268 0 0 0 1.58187,-16.3965l4.16719,-93.01794l-21.21552,2.3813l1.23255,90.98468a10.80091,10.80091 0 0 0 14.23391,16.04846z"/>
  <polygon id="svg_17" fill="#ffb8b8" points="204.564 601.708 216.639 603.83 228.573 558.267 212.752 555.134 204.564 601.708"/>
  <path id="svg_18" fill="#2f2e41" transform="rotate(-170.0292205810547 498.8039855957031,1417.3839111328125) " d="m893.92734,2158.40991l38.53073,0a0,0 0 0 1 0,0l0,14.88687a0,0 0 0 1 0,0l-23.64388,0a14.88686,14.88686 0 0 1 -14.88686,-14.88686l0,0a0,0 0 0 1 0.00001,-0.00001z"/>
  <polygon id="svg_19" fill="#ffb8b8" points="171.422 607.752 183.682 607.751 189.514 560.463 171.42 560.464 171.422 607.752"/>
  <path id="svg_20" fill="#2f2e41" transform="rotate(179.99737548828125 570.2748413085939,1363.3663330078125) " d="m933.18978,2107.61479l38.53073,0a0,0 0 0 1 0,0l0,14.88687a0,0 0 0 1 0,0l-23.64388,0a14.88686,14.88686 0 0 1 -14.88686,-14.88686l0,0a0,0 0 0 1 0.00001,-0.00001z"/>
  <path id="svg_21" fill="#2f2e41" d="m223.57442,594.8025a4.75008,4.75008 0 0 1 -0.57252,-0.03389l-14.43,-1.18741a4.88077,4.88077 0 0 1 -4.24251,-5.65951l13.32468,-74.681l-9.00352,-47.474a1.62706,1.62706 0 0 0 -3.219,0.15995l-11.25575,126.62771a4.92369,4.92369 0 0 1 -5.2096,4.43715l-13.59479,-0.50632a4.88783,4.88783 0 0 1 -4.53645,-4.631l-0.91385,-151.76761l70.48116,-8.80968l4.9236,76.04057l-0.01959,0.0805l-16.99071,83.675a4.88582,4.88582 0 0 1 -4.74115,3.72954z"/>
  <circle id="svg_22" fill="#ffb8b8" r="24.56103" cy="249.99669" cx="193.15865"/>
  <path id="svg_23" fill="#003f7f" d="m216.30116,451.17892a20.11,20.11 0 0 1 -10.85692,-3.10569c-11.89736,-7.43585 -25.41059,-4.48057 -32.40686,-2.057a4.88009,4.88009 0 0 1 -4.22053,-0.48089a4.81083,4.81083 0 0 1 -2.2244,-3.55163l-12.72254,-113.62555c-2.132,-19.03768 9.33586,-36.93668 27.2677,-42.55965l0,0q1.01052,-0.317 2.05519,-0.60112a39.56866,39.56866 0 0 1 32.972,5.72254a40.20349,40.20349 0 0 1 17.1668,29.35307l10.71048,114.3871a4.80738,4.80738 0 0 1 -1.52715,4.0071c-3.75448,3.47324 -14.65166,12.51066 -26.21377,12.51172z"/>
  <path id="svg_24" fill="#003f7f" d="m177.56004,352.72437l-28.70337,-3.156a5.71747,5.71747 0 0 1 -4.90543,-7.13382l7.30606,-27.84637a15.87852,15.87852 0 0 1 31.55638,3.56326l1.08461,28.67531a5.71749,5.71749 0 0 1 -6.33825,5.89758l0,0.00004z"/>
  <path id="svg_25" fill="#ffb8b8" d="m243.92723,440.26582a10.74264,10.74264 0 0 0 -0.40564,-16.46763l-7.07293,-92.84219l-20.78851,4.67965l12.20288,90.41406a10.80091,10.80091 0 0 0 16.0642,14.21613l0,-0.00002z"/>
  <path id="svg_26" fill="#003f7f" d="m207.69008,346.888a5.7113,5.7113 0 0 1 -1.81845,-4.39983l1.08461,-28.67532a15.87852,15.87852 0 0 1 31.55638,-3.56326l7.30606,27.84637a5.71749,5.71749 0 0 1 -4.90543,7.13383l-28.70337,3.156a5.711,5.711 0 0 1 -4.5198,-1.49779z"/>
  <path id="svg_27" fill="#2f2e41" d="m191.69783,275.48307a5.683,5.683 0 0 1 -1.29663,-0.15137l-0.12475,-0.03027c-21.59449,-3.30371 -26.3667,-15.81153 -27.41431,-21.03516c-1.08423,-5.4082 0.15039,-10.62842 2.94019,-12.65576c-1.521,-4.80273 -1.27686,-9.061 0.72729,-12.66211c3.49536,-6.28027 11.08106,-8.40381 12.09839,-8.66357c6.05811,-4.46924 13.3064,-1.48584 14.62524,-0.88086c11.71851,-4.33545 16.19751,-0.72657 17.00757,0.0791c5.23828,0.94092 8.43115,2.96435 9.49121,6.01562c1.991,5.731 -4.30542,12.85987 -4.57446,13.16065l-0.13965,0.15576l-9.38013,0.44678a6.358,6.358 0 0 0 -5.9812,7.31689l0,0a29.60406,29.60406 0 0 0 0.96045,3.35547c1.602,5.00635 2.80225,9.2832 1.25415,10.90918a2.50968,2.50968 0 0 1 -2.62524,0.45508c-1.46655,-0.3916 -2.4624,-0.30957 -2.9585,0.24463c-0.77026,0.85937 -0.53515,3.03466 0.66211,6.12549a5.73887,5.73887 0 0 1 -1.0459,5.84716a5.56805,5.56805 0 0 1 -4.22583,1.96729z"/>
  <path id="svg_28" fill="#3f3d56" d="m481.75983,354l-121,0a17.01917,17.01917 0 0 1 -17,-17l0,-181.83154a17.01916,17.01916 0 0 1 17,-17l121,0a17.01916,17.01916 0 0 1 17,17l0,181.83154a17.01917,17.01917 0 0 1 -17,17zm-121,-213.83154a15.017,15.017 0 0 0 -15,15l0,181.83154a15.017,15.017 0 0 0 15,15l121,0a15.017,15.017 0 0 0 15,-15l0,-181.83154a15.017,15.017 0 0 0 -15,-15l-121,0z"/>
  <path id="svg_29" fill="#6c63ff" d="m463.25979,225.58447l-84,0a8.50951,8.50951 0 0 1 -8.5,-8.5l0,-40a8.50951,8.50951 0 0 1 8.5,-8.5l84,0a8.50981,8.50981 0 0 1 8.5,8.5l0,40a8.50981,8.50981 0 0 1 -8.5,8.5z"/>
  <path id="svg_30" fill="#ccc" d="m457.25991,263.08434l-72,0a8,8 0 1 1 0,-16l72,0a8,8 0 0 1 0,16z"/>
  <path id="svg_31" fill="#ccc" d="m457.25991,293.08434l-72,0a8,8 0 1 1 0,-16l72,0a8,8 0 0 1 0,16z"/>
  <path id="svg_32" fill="#ccc" d="m457.25991,323.08434l-72,0a8,8 0 1 1 0,-16l72,0a8,8 0 0 1 0,16z"/>
  <path id="svg_33" fill="#3f3d56" d="m776.75983,456l-121,0a17.01917,17.01917 0 0 1 -17,-17l0,-181.83154a17.01916,17.01916 0 0 1 17,-17l121,0a17.01916,17.01916 0 0 1 17,17l0,181.83154a17.01917,17.01917 0 0 1 -17,17zm-121,-213.83154a15.017,15.017 0 0 0 -15,15l0,181.83154a15.017,15.017 0 0 0 15,15l121,0a15.017,15.017 0 0 0 15,-15l0,-181.83154a15.017,15.017 0 0 0 -15,-15l-121,0z"/>
  <path id="svg_34" fill="#ccc" d="m752.25991,285.08434l-72,0a8,8 0 1 1 0,-16l72,0a8,8 0 0 1 0,16z"/>
  <path id="svg_35" fill="#ccc" d="m752.25991,315.08434l-72,0a8,8 0 1 1 0,-16l72,0a8,8 0 0 1 0,16z"/>
  <path id="svg_36" fill="#e6e6e6" d="m758.25979,391.584l-84,0a8.51013,8.51013 0 0 1 -8.5,-8.5l0,-40a8.51014,8.51014 0 0 1 8.5,-8.5l84,0a8.51013,8.51013 0 0 1 8.5,8.5l0,40a8.51012,8.51012 0 0 1 -8.5,8.5z"/>
  <path id="svg_37" fill="#ccc" d="m752.25991,427.08434l-72,0a8,8 0 1 1 0,-16l72,0a8,8 0 0 1 0,16z"/>
  <path id="svg_38" fill="#3f3d56" d="m702.75983,167l-121,0a17.01917,17.01917 0 0 1 -17,-17l0,-112.83154a17.01916,17.01916 0 0 1 17,-17l121,0a17.01916,17.01916 0 0 1 17,17l0,112.83154a17.01917,17.01917 0 0 1 -17,17zm-121,-144.83154a15.017,15.017 0 0 0 -15,15l0,112.83154a15.017,15.017 0 0 0 15,15l121,0a15.017,15.017 0 0 0 15,-15l0,-112.83154a15.017,15.017 0 0 0 -15,-15l-121,0z"/>
  <path id="svg_39" fill="#ccc" d="m678.25991,131.58434l-72,0a8,8 0 1 1 0,-16l72,0a8,8 0 0 1 0,16z"/>
  <path id="svg_40" fill="#ccc" d="m678.25991,101.58434l-72,0a8,8 0 1 1 0,-16l72,0a8,8 0 0 1 0,16z"/>
  <path id="svg_41" fill="#ccc" d="m678.25991,71.58434l-72,0a8,8 0 1 1 0,-16l72,0a8,8 0 0 1 0,16z"/>
  <circle id="svg_42" fill="#6c63ff" r="23" cy="143" cx="488.75984"/>
  <path id="svg_43" fill="#fff" d="m486.48,151.774a2.38531,2.38531 0 0 1 -1.43527,-0.47675l-0.02567,-0.01928l-5.40515,-4.13837a2.40139,2.40139 0 1 1 2.921,-3.81237l3.50105,2.68456l8.27354,-10.7899a2.40128,2.40128 0 0 1 3.36684,-0.44444l-0.05144,0.06984l0.05278,-0.06883a2.4041,2.4041 0 0 1 0.44444,3.36687l-9.73161,12.69147a2.40237,2.40237 0 0 1 -1.91051,0.9372z"/>
  <circle id="svg_44" fill="#3f3d56" r="23" cy="246" cx="788.75984"/>
  <path id="svg_45" fill="#fff" d="m786.48,254.774a2.38531,2.38531 0 0 1 -1.43527,-0.47675l-0.02567,-0.01928l-5.40515,-4.13837a2.40139,2.40139 0 1 1 2.921,-3.81237l3.50105,2.68456l8.27354,-10.7899a2.40128,2.40128 0 0 1 3.36684,-0.44444l-0.05144,0.06984l0.05278,-0.06883a2.4041,2.4041 0 0 1 0.44444,3.36687l-9.73161,12.69147a2.40237,2.40237 0 0 1 -1.91051,0.9372z"/>
  <circle id="svg_46" fill="#6c63ff" r="23" cy="23" cx="715.75984"/>
  <path id="svg_47" fill="#fff" d="m713.48,31.774a2.38531,2.38531 0 0 1 -1.43527,-0.47675l-0.02567,-0.01928l-5.40515,-4.13837a2.40139,2.40139 0 1 1 2.921,-3.81237l3.50105,2.68456l8.27354,-10.7899a2.40128,2.40128 0 0 1 3.36684,-0.44444l-0.05144,0.06984l0.05278,-0.06883a2.4041,2.4041 0 0 1 0.44444,3.36687l-9.73161,12.69147a2.40237,2.40237 0 0 1 -1.91051,0.9372z"/>
  <path id="svg_48" fill="#3f3d56" d="m381.99999,620l-381,0a1,1 0 0 1 0,-2l381,0a1,1 0 1 1 0,2z"/>
 </g>
</svg>