<svg width="855.41839" height="610.77534" xmlns="http://www.w3.org/2000/svg">

 <g>
  <title>background</title>
  <rect fill="none" id="canvas_background" height="602" width="802" y="-1" x="-1"/>
 </g>
 <g>
  <title>Layer 1</title>
  <circle id="svg_1" fill="#e6e6e6" r="13.63057" cy="110.72662" cx="39.53587"/>
  <circle id="svg_2" fill="#e6e6e6" r="13.63057" cy="110.72662" cx="80.42757"/>
  <circle id="svg_3" fill="#e6e6e6" r="13.63057" cy="110.72662" cx="121.31927"/>
  <circle id="svg_4" fill="#e6e6e6" r="13.63057" cy="110.72662" cx="162.21097"/>
  <circle id="svg_5" fill="#e6e6e6" r="13.63057" cy="110.72662" cx="203.10267"/>
  <circle id="svg_6" fill="#e6e6e6" r="13.63057" cy="110.72662" cx="243.99437"/>
  <circle id="svg_7" fill="#e6e6e6" r="13.63057" cy="110.72662" cx="284.88607"/>
  <path id="svg_8" fill="#e6e6e6" d="m316.38365,127.32549l-308.34538,0a5.55346,5.55346 0 0 1 -5.54693,-5.54693l0,-22.10376a5.55345,5.55345 0 0 1 5.54693,-5.54693l308.34538,0a5.55346,5.55346 0 0 1 5.54693,5.54693l0,22.10376a5.55347,5.55347 0 0 1 -5.54693,5.54693zm-308.34538,-30.97883a3.3318,3.3318 0 0 0 -3.32816,3.32816l0,22.10374a3.3318,3.3318 0 0 0 3.32816,3.32815l308.34538,0a3.33179,3.33179 0 0 0 3.32815,-3.32815l0,-22.10376a3.33179,3.33179 0 0 0 -3.32815,-3.32816l-308.34538,0.00002z"/>
  <path id="svg_9" fill="#e6e6e6" d="m74.02612,3.18704a3.19065,3.19065 0 0 1 3.187,3.187l0,69.06262a3.19065,3.19065 0 0 1 -3.187,3.187l-67.652,0a3.19065,3.19065 0 0 1 -3.187,-3.187l0,-69.06257a3.19065,3.19065 0 0 1 3.187,-3.187l67.652,0m0,-3.18705l-67.652,0a6.3741,6.3741 0 0 0 -6.3741,6.3741l0,69.06252a6.3741,6.3741 0 0 0 6.3741,6.3741l67.652,0a6.37411,6.37411 0 0 0 6.3741,-6.3741l0,-69.06257a6.37411,6.37411 0 0 0 -6.3741,-6.3741l0,0.00005z"/>
  <path id="svg_10" fill="#6c63ff" d="m63.47387,21.34059l-45.13691,0a1.59353,1.59353 0 1 1 0,-3.187l45.13691,0a1.59353,1.59353 0 1 1 0,3.187z"/>
  <path id="svg_11" fill="#6c63ff" d="m63.47387,32.62521l-45.13691,0a1.59353,1.59353 0 1 1 0,-3.187l45.13691,0a1.59353,1.59353 0 1 1 0,3.187z"/>
  <path id="svg_12" fill="#6c63ff" d="m63.47387,43.90905l-45.13691,0a1.59353,1.59353 0 1 1 0,-3.187l45.13691,0a1.59353,1.59353 0 1 1 0,3.187z"/>
  <path id="svg_13" fill="#6c63ff" d="m63.47387,55.19366l-45.13691,0a1.59353,1.59353 0 1 1 0,-3.187l45.13691,0a1.59353,1.59353 0 1 1 0,3.187z"/>
  <path id="svg_14" fill="#6c63ff" d="m63.47387,66.47829l-45.13691,0a1.59353,1.59353 0 1 1 0,-3.18706l45.13691,0a1.59353,1.59353 0 0 1 0,3.18706z"/>
  <path id="svg_15" fill="#e6e6e6" d="m305.0873,3.18704a3.19065,3.19065 0 0 1 3.187,3.187l0,69.06262a3.19065,3.19065 0 0 1 -3.187,3.187l-67.652,0a3.19065,3.19065 0 0 1 -3.187,-3.187l0,-69.06257a3.19065,3.19065 0 0 1 3.187,-3.187l67.652,0m0,-3.18705l-67.652,0a6.3741,6.3741 0 0 0 -6.3741,6.3741l0,69.06252a6.3741,6.3741 0 0 0 6.3741,6.3741l67.652,0a6.3741,6.3741 0 0 0 6.3741,-6.3741l0,-69.06257a6.3741,6.3741 0 0 0 -6.3741,-6.3741l0,0.00005z"/>
  <path id="svg_16" fill="#6c63ff" d="m294.53506,21.34059l-45.13688,0a1.59353,1.59353 0 1 1 0,-3.187l45.13692,0a1.59353,1.59353 0 0 1 0,3.187l-0.00004,0z"/>
  <path id="svg_17" fill="#6c63ff" d="m294.53506,32.62521l-45.13688,0a1.59353,1.59353 0 1 1 0,-3.187l45.13692,0a1.59353,1.59353 0 0 1 0,3.187l-0.00004,0z"/>
  <path id="svg_18" fill="#6c63ff" d="m294.53506,43.90905l-45.13688,0a1.59353,1.59353 0 1 1 0,-3.187l45.13692,0a1.59353,1.59353 0 0 1 0,3.187l-0.00004,0z"/>
  <path id="svg_19" fill="#6c63ff" d="m294.53506,55.19366l-45.13688,0a1.59353,1.59353 0 1 1 0,-3.187l45.13692,0a1.59353,1.59353 0 0 1 0,3.187l-0.00004,0z"/>
  <path id="svg_20" fill="#6c63ff" d="m294.53506,66.47829l-45.13688,0a1.59353,1.59353 0 1 1 0,-3.18706l45.13692,0a1.59353,1.59353 0 0 1 0,3.18706l-0.00004,0z"/>
  <path id="svg_21" fill="#6c63ff" d="m535.02618,135.97843a3.19065,3.19065 0 0 1 3.187,3.187l0,69.06255a3.19066,3.19066 0 0 1 -3.187,3.187l-67.652,0a3.19066,3.19066 0 0 1 -3.187,-3.187l0,-69.0625a3.19065,3.19065 0 0 1 3.187,-3.187l67.652,0m0,-3.187l-67.652,0a6.3741,6.3741 0 0 0 -6.3741,6.3741l0,69.06255a6.3741,6.3741 0 0 0 6.3741,6.3741l67.652,0a6.37411,6.37411 0 0 0 6.3741,-6.3741l0,-69.06265a6.3741,6.3741 0 0 0 -6.3741,-6.3741l0,0.0001z"/>
  <path id="svg_22" fill="#6c63ff" d="m524.47394,154.13198l-45.13692,0a1.59353,1.59353 0 1 1 0,-3.187l45.13692,0a1.59353,1.59353 0 0 1 0,3.187z"/>
  <path id="svg_23" fill="#6c63ff" d="m524.47394,165.4166l-45.13692,0a1.59353,1.59353 0 0 1 0,-3.18706l45.13692,0a1.59353,1.59353 0 0 1 0,3.18706z"/>
  <path id="svg_24" fill="#6c63ff" d="m524.47394,176.70044l-45.13692,0a1.59352,1.59352 0 1 1 0,-3.187l45.13692,0a1.59353,1.59353 0 0 1 0,3.187z"/>
  <path id="svg_25" fill="#6c63ff" d="m524.47394,187.98505l-45.13692,0a1.59353,1.59353 0 1 1 0,-3.187l45.13692,0a1.59353,1.59353 0 0 1 0,3.187z"/>
  <path id="svg_26" fill="#6c63ff" d="m524.47394,199.26966l-45.13692,0a1.59353,1.59353 0 1 1 0,-3.187l45.13692,0a1.59353,1.59353 0 0 1 0,3.187z"/>
  <path id="svg_27" fill="#e6e6e6" d="m190.442,81.81074l-69.42339,0a7.08972,7.08972 0 0 1 -7.08139,-7.08138l0,-49.67629a7.08988,7.08988 0 0 1 7.08139,-7.08216l69.42339,0a7.09,7.09 0 0 1 7.08217,7.08216l0,49.67629a7.08988,7.08988 0 0 1 -7.08217,7.08138zm-69.42339,-60.65278a3.89917,3.89917 0 0 0 -3.89434,3.89511l0,49.67629a3.89851,3.89851 0 0 0 3.89434,3.89433l69.42339,0a3.89917,3.89917 0 0 0 3.89511,-3.89433l0,-49.67629a3.89983,3.89983 0 0 0 -3.89511,-3.89511l-69.42339,0z"/>
  <path id="svg_28" fill="#6c63ff" d="m178.29918,40.20012l-45.13695,0a1.59353,1.59353 0 0 1 0,-3.187l45.13695,0a1.59353,1.59353 0 1 1 0,3.187z"/>
  <path id="svg_29" fill="#6c63ff" d="m178.29918,51.48474l-45.13695,0a1.59353,1.59353 0 0 1 0,-3.187l45.13695,0a1.59353,1.59353 0 1 1 0,3.187z"/>
  <path id="svg_30" fill="#6c63ff" d="m178.29918,62.76858l-45.13695,0a1.59353,1.59353 0 0 1 0,-3.187l45.13695,0a1.59353,1.59353 0 1 1 0,3.187z"/>
  <path id="svg_31" fill="#e6e6e6" d="m420.80029,109.33791l-66.67625,-19.33615a7.08971,7.08971 0 0 1 -4.82882,-8.77351l13.83608,-47.71054a7.08988,7.08988 0 0 1 8.77372,-4.82958l66.67625,19.33615a7.09,7.09 0 0 1 4.82935,8.77447l-13.83608,47.71055a7.08988,7.08988 0 0 1 -8.77425,4.82861zm-49.78294,-77.58884a3.89916,3.89916 0 0 0 -4.82511,2.65631l-13.83606,47.71055a3.89851,3.89851 0 0 0 2.65557,4.8249l66.67624,19.33614a3.89918,3.89918 0 0 0 4.82565,-2.65535l13.83608,-47.71054a3.89985,3.89985 0 0 0 -2.65609,-4.82587l-66.67628,-19.33614z"/>
  <path id="svg_32" fill="#6c63ff" d="m420.72753,65.99177l-43.3508,-12.57175a1.59353,1.59353 0 0 1 0.88767,-3.06094l43.35078,12.57176a1.59352,1.59352 0 1 1 -0.88768,3.06093l0.00003,0z"/>
  <path id="svg_33" fill="#6c63ff" d="m417.58449,76.82985l-43.35081,-12.57176a1.59352,1.59352 0 1 1 0.88767,-3.06093l43.35083,12.57175a1.59353,1.59353 0 0 1 -0.88767,3.06094l-0.00002,0z"/>
  <path id="svg_34" fill="#6c63ff" d="m414.44166,87.66717l-43.35081,-12.57175a1.59353,1.59353 0 0 1 0.88767,-3.06094l43.35081,12.57176a1.59352,1.59352 0 0 1 -0.88767,3.06093z"/>
  <rect id="svg_35" fill="#e6e6e6" height="3" width="699.3125" y="607.77534" x="156.10589"/>
  <polygon id="svg_36" fill="#e6e6e6" points="562.14 603.085 448.421 603.085 452.276 552.973 558.285 552.973 562.14 603.085"/>
  <rect id="svg_37" fill="#e6e6e6" height="11.5646" width="127.21043" y="597.3034" x="442.63878"/>
  <path id="svg_38" fill="#3f3d56" d="m723.07991,230.12787l-434.63559,0a11.56458,11.56458 0 0 0 -11.56458,11.56458l0,0l0,265.02171l457.76477,0l0,-265.02171a11.56457,11.56457 0 0 0 -11.56456,-11.56458l-0.00004,0z"/>
  <path id="svg_39" fill="#e6e6e6" d="m276.87974,506.71416l0,43.36719a11.56457,11.56457 0 0 0 11.56458,11.56457l434.63559,0a11.56459,11.56459 0 0 0 11.5646,-11.56457l0,0l0,-43.36719l-457.76477,0z"/>
  <rect id="svg_40" fill="#e6e6e6" height="231.29169" width="412.47016" y="254.22076" x="300.00891"/>
  <circle id="svg_41" fill="#3f3d56" r="11.56459" cy="533.69821" cx="506.244"/>
  <circle id="svg_42" fill="#fff" r="2.19466" cy="261.79534" cx="312.86987"/>
  <circle id="svg_43" fill="#fff" r="2.19466" cy="261.79534" cx="321.20026"/>
  <circle id="svg_44" fill="#fff" r="2.19466" cy="261.79534" cx="329.53064"/>
  <rect id="svg_45" fill="#fff" height="194.24707" width="389.91608" y="269.25275" x="310.6752"/>
  <path id="svg_46" fill="#e6e6e6" d="m336.59418,298.79877a1.37973,1.37973 0 0 0 -1.37842,1.37842l0,69.67578a1.37973,1.37973 0 0 0 1.37842,1.37841l80.4643,0a1.37973,1.37973 0 0 0 1.37842,-1.37841l0,-69.67578a1.37973,1.37973 0 0 0 -1.37842,-1.37842l-80.4643,0z"/>
  <path id="svg_47" fill="#e6e6e6" d="m465.78993,299.02289a1.37984,1.37984 0 0 0 -1.37891,1.37842l0,69.45166a1.37984,1.37984 0 0 0 1.37891,1.37841l80.208,0a1.37963,1.37963 0 0 0 1.37793,-1.37841l0,-69.45166a1.37963,1.37963 0 0 0 -1.37793,-1.37842l-80.208,0z"/>
  <path id="svg_48" fill="#e6e6e6" d="m593.63075,298.29486a1.37963,1.37963 0 0 0 -1.37793,1.37842l0,70.17969a1.37962,1.37962 0 0 0 1.37793,1.37841l81.042,0a1.37962,1.37962 0 0 0 1.37793,-1.37841l0,-70.17969a1.37963,1.37963 0 0 0 -1.37793,-1.37842l-81.042,0z"/>
  <path id="svg_49" fill="#e6e6e6" d="m338.06532,405.72066a2.84986,2.84986 0 0 0 0,5.69971l75.65234,0a2.84986,2.84986 0 0 0 0,-5.69971l-75.65234,0z"/>
  <path id="svg_50" fill="#6c63ff" d="m338.06532,419.27631a2.8501,2.8501 0 0 0 0,5.70019l34.062,0a2.8501,2.8501 0 0 0 0,-5.70019l-34.062,0z"/>
  <path id="svg_51" fill="#e6e6e6" d="m468.6493,405.72066a2.84986,2.84986 0 0 0 0,5.69971l75.65235,0a2.84986,2.84986 0 0 0 0,-5.69971l-75.65235,0z"/>
  <path id="svg_52" fill="#6c63ff" d="m468.6493,419.27631a2.8501,2.8501 0 0 0 0,5.70019l34.0625,0a2.8501,2.8501 0 0 0 0,-5.70019l-34.0625,0z"/>
  <path id="svg_53" fill="#e6e6e6" d="m595.96962,405.72066a2.84986,2.84986 0 0 0 0,5.69971l75.65234,0a2.84986,2.84986 0 0 0 0,-5.69971l-75.65234,0z"/>
  <path id="svg_54" fill="#e6e6e6" d="m338.06532,391.72066a2.84986,2.84986 0 0 0 0,5.69971l75.65234,0a2.84986,2.84986 0 0 0 0,-5.69971l-75.65234,0z"/>
  <path id="svg_55" fill="#e6e6e6" d="m468.6493,391.72066a2.84986,2.84986 0 0 0 0,5.69971l75.65235,0a2.84986,2.84986 0 0 0 0,-5.69971l-75.65235,0z"/>
  <path id="svg_56" fill="#e6e6e6" d="m595.96962,391.72066a2.84986,2.84986 0 0 0 0,5.69971l75.65234,0a2.84986,2.84986 0 0 0 0,-5.69971l-75.65234,0z"/>
  <path id="svg_57" fill="#6c63ff" d="m595.96962,419.27631a2.8501,2.8501 0 0 0 0,5.70019l34.06156,0a2.8501,2.8501 0 0 0 0,-5.70019l-34.06156,0z"/>
 </g>
</svg>